<svg xmlns:xlink="http://www.w3.org/1999/xlink" width="109.039ex" height="61.343ex" style="font-size: 15px; vertical-align: -3.005ex;" viewBox="0 -25117.7 46947.1 26411.3" role="img" focusable="false" xmlns="http://www.w3.org/2000/svg">
<defs>
<path stroke-width="1" id="E1-MJMATHI-49" d="M43 1Q26 1 26 10Q26 12 29 24Q34 43 39 45Q42 46 54 46H60Q120 46 136 53Q137 53 138 54Q143 56 149 77T198 273Q210 318 216 344Q286 624 286 626Q284 630 284 631Q274 637 213 637H193Q184 643 189 662Q193 677 195 680T209 683H213Q285 681 359 681Q481 681 487 683H497Q504 676 504 672T501 655T494 639Q491 637 471 637Q440 637 407 634Q393 631 388 623Q381 609 337 432Q326 385 315 341Q245 65 245 59Q245 52 255 50T307 46H339Q345 38 345 37T342 19Q338 6 332 0H316Q279 2 179 2Q143 2 113 2T65 2T43 1Z"></path>
<path stroke-width="1" id="E1-MJMATHI-4D" d="M289 629Q289 635 232 637Q208 637 201 638T194 648Q194 649 196 659Q197 662 198 666T199 671T201 676T203 679T207 681T212 683T220 683T232 684Q238 684 262 684T307 683Q386 683 398 683T414 678Q415 674 451 396L487 117L510 154Q534 190 574 254T662 394Q837 673 839 675Q840 676 842 678T846 681L852 683H948Q965 683 988 683T1017 684Q1051 684 1051 673Q1051 668 1048 656T1045 643Q1041 637 1008 637Q968 636 957 634T939 623Q936 618 867 340T797 59Q797 55 798 54T805 50T822 48T855 46H886Q892 37 892 35Q892 19 885 5Q880 0 869 0Q864 0 828 1T736 2Q675 2 644 2T609 1Q592 1 592 11Q592 13 594 25Q598 41 602 43T625 46Q652 46 685 49Q699 52 704 61Q706 65 742 207T813 490T848 631L654 322Q458 10 453 5Q451 4 449 3Q444 0 433 0Q418 0 415 7Q413 11 374 317L335 624L267 354Q200 88 200 79Q206 46 272 46H282Q288 41 289 37T286 19Q282 3 278 1Q274 0 267 0Q265 0 255 0T221 1T157 2Q127 2 95 1T58 0Q43 0 39 2T35 11Q35 13 38 25T43 40Q45 46 65 46Q135 46 154 86Q158 92 223 354T289 629Z"></path>
<path stroke-width="1" id="E1-MJMATHI-57" d="M436 683Q450 683 486 682T553 680Q604 680 638 681T677 682Q695 682 695 674Q695 670 692 659Q687 641 683 639T661 637Q636 636 621 632T600 624T597 615Q597 603 613 377T629 138L631 141Q633 144 637 151T649 170T666 200T690 241T720 295T759 362Q863 546 877 572T892 604Q892 619 873 628T831 637Q817 637 817 647Q817 650 819 660Q823 676 825 679T839 682Q842 682 856 682T895 682T949 681Q1015 681 1034 683Q1048 683 1048 672Q1048 666 1045 655T1038 640T1028 637Q1006 637 988 631T958 617T939 600T927 584L923 578L754 282Q586 -14 585 -15Q579 -22 561 -22Q546 -22 542 -17Q539 -14 523 229T506 480L494 462Q472 425 366 239Q222 -13 220 -15T215 -19Q210 -22 197 -22Q178 -22 176 -15Q176 -12 154 304T131 622Q129 631 121 633T82 637H58Q51 644 51 648Q52 671 64 683H76Q118 680 176 680Q301 680 313 683H323Q329 677 329 674T327 656Q322 641 318 637H297Q236 634 232 620Q262 160 266 136L501 550L499 587Q496 629 489 632Q483 636 447 637Q428 637 422 639T416 648Q416 650 418 660Q419 664 420 669T421 676T424 680T428 682T436 683Z"></path>
<path stroke-width="1" id="E1-MJMATHI-52" d="M230 637Q203 637 198 638T193 649Q193 676 204 682Q206 683 378 683Q550 682 564 680Q620 672 658 652T712 606T733 563T739 529Q739 484 710 445T643 385T576 351T538 338L545 333Q612 295 612 223Q612 212 607 162T602 80V71Q602 53 603 43T614 25T640 16Q668 16 686 38T712 85Q717 99 720 102T735 105Q755 105 755 93Q755 75 731 36Q693 -21 641 -21H632Q571 -21 531 4T487 82Q487 109 502 166T517 239Q517 290 474 313Q459 320 449 321T378 323H309L277 193Q244 61 244 59Q244 55 245 54T252 50T269 48T302 46H333Q339 38 339 37T336 19Q332 6 326 0H311Q275 2 180 2Q146 2 117 2T71 2T50 1Q33 1 33 10Q33 12 36 24Q41 43 46 45Q50 46 61 46H67Q94 46 127 49Q141 52 146 61Q149 65 218 339T287 628Q287 635 230 637ZM630 554Q630 586 609 608T523 636Q521 636 500 636T462 637H440Q393 637 386 627Q385 624 352 494T319 361Q319 360 388 360Q466 361 492 367Q556 377 592 426Q608 449 619 486T630 554Z"></path>
<path stroke-width="1" id="E1-MJMATHI-54" d="M40 437Q21 437 21 445Q21 450 37 501T71 602L88 651Q93 669 101 677H569H659Q691 677 697 676T704 667Q704 661 687 553T668 444Q668 437 649 437Q640 437 637 437T631 442L629 445Q629 451 635 490T641 551Q641 586 628 604T573 629Q568 630 515 631Q469 631 457 630T439 622Q438 621 368 343T298 60Q298 48 386 46Q418 46 427 45T436 36Q436 31 433 22Q429 4 424 1L422 0Q419 0 415 0Q410 0 363 1T228 2Q99 2 64 0H49Q43 6 43 9T45 27Q49 40 55 46H83H94Q174 46 189 55Q190 56 191 56Q196 59 201 76T241 233Q258 301 269 344Q339 619 339 625Q339 630 310 630H279Q212 630 191 624Q146 614 121 583T67 467Q60 445 57 441T43 437H40Z"></path>
<path stroke-width="1" id="E1-MJMATHI-45" d="M492 213Q472 213 472 226Q472 230 477 250T482 285Q482 316 461 323T364 330H312Q311 328 277 192T243 52Q243 48 254 48T334 46Q428 46 458 48T518 61Q567 77 599 117T670 248Q680 270 683 272Q690 274 698 274Q718 274 718 261Q613 7 608 2Q605 0 322 0H133Q31 0 31 11Q31 13 34 25Q38 41 42 43T65 46Q92 46 125 49Q139 52 144 61Q146 66 215 342T285 622Q285 629 281 629Q273 632 228 634H197Q191 640 191 642T193 659Q197 676 203 680H757Q764 676 764 669Q764 664 751 557T737 447Q735 440 717 440H705Q698 445 698 453L701 476Q704 500 704 528Q704 558 697 578T678 609T643 625T596 632T532 634H485Q397 633 392 631Q388 629 386 622Q385 619 355 499T324 377Q347 376 372 376H398Q464 376 489 391T534 472Q538 488 540 490T557 493Q562 493 565 493T570 492T572 491T574 487T577 483L544 351Q511 218 508 216Q505 213 492 213Z"></path>
<path stroke-width="1" id="E1-MJMAIN-5F" d="M0 -62V-25H499V-62H0Z"></path>
<path stroke-width="1" id="E1-MJMATHI-4A" d="M447 625Q447 637 354 637H329Q323 642 323 645T325 664Q329 677 335 683H352Q393 681 498 681Q541 681 568 681T605 682T619 682Q633 682 633 672Q633 670 630 658Q626 642 623 640T604 637Q552 637 545 623Q541 610 483 376Q420 128 419 127Q397 64 333 21T195 -22Q137 -22 97 8T57 88Q57 130 80 152T132 174Q177 174 182 130Q182 98 164 80T123 56Q115 54 115 53T122 44Q148 15 197 15Q235 15 271 47T324 130Q328 142 387 380T447 625Z"></path>
<path stroke-width="1" id="E1-MJMATHI-50" d="M287 628Q287 635 230 637Q206 637 199 638T192 648Q192 649 194 659Q200 679 203 681T397 683Q587 682 600 680Q664 669 707 631T751 530Q751 453 685 389Q616 321 507 303Q500 302 402 301H307L277 182Q247 66 247 59Q247 55 248 54T255 50T272 48T305 46H336Q342 37 342 35Q342 19 335 5Q330 0 319 0Q316 0 282 1T182 2Q120 2 87 2T51 1Q33 1 33 11Q33 13 36 25Q40 41 44 43T67 46Q94 46 127 49Q141 52 146 61Q149 65 218 339T287 628ZM645 554Q645 567 643 575T634 597T609 619T560 635Q553 636 480 637Q463 637 445 637T416 636T404 636Q391 635 386 627Q384 621 367 550T332 412T314 344Q314 342 395 342H407H430Q542 342 590 392Q617 419 631 471T645 554Z"></path>
<path stroke-width="1" id="E1-MJMATHI-47" d="M50 252Q50 367 117 473T286 641T490 704Q580 704 633 653Q642 643 648 636T656 626L657 623Q660 623 684 649Q691 655 699 663T715 679T725 690L740 705H746Q760 705 760 698Q760 694 728 561Q692 422 692 421Q690 416 687 415T669 413H653Q647 419 647 422Q647 423 648 429T650 449T651 481Q651 552 619 605T510 659Q492 659 471 656T418 643T357 615T294 567T236 496T189 394T158 260Q156 242 156 221Q156 173 170 136T206 79T256 45T308 28T353 24Q407 24 452 47T514 106Q517 114 529 161T541 214Q541 222 528 224T468 227H431Q425 233 425 235T427 254Q431 267 437 273H454Q494 271 594 271Q634 271 659 271T695 272T707 272Q721 272 721 263Q721 261 719 249Q714 230 709 228Q706 227 694 227Q674 227 653 224Q646 221 643 215T629 164Q620 131 614 108Q589 6 586 3Q584 1 581 1Q571 1 553 21T530 52Q530 53 528 52T522 47Q448 -22 322 -22Q201 -22 126 55T50 252Z"></path>
<path stroke-width="1" id="E1-MJMATHI-51" d="M399 -80Q399 -47 400 -30T402 -11V-7L387 -11Q341 -22 303 -22Q208 -22 138 35T51 201Q50 209 50 244Q50 346 98 438T227 601Q351 704 476 704Q514 704 524 703Q621 689 680 617T740 435Q740 255 592 107Q529 47 461 16L444 8V3Q444 2 449 -24T470 -66T516 -82Q551 -82 583 -60T625 -3Q631 11 638 11Q647 11 649 2Q649 -6 639 -34T611 -100T557 -165T481 -194Q399 -194 399 -87V-80ZM636 468Q636 523 621 564T580 625T530 655T477 665Q429 665 379 640Q277 591 215 464T153 216Q153 110 207 59Q231 38 236 38V46Q236 86 269 120T347 155Q372 155 390 144T417 114T429 82T435 55L448 64Q512 108 557 185T619 334T636 468ZM314 18Q362 18 404 39L403 49Q399 104 366 115Q354 117 347 117Q344 117 341 117T337 118Q317 118 296 98T274 52Q274 18 314 18Z"></path>
<path stroke-width="1" id="E1-MJMATHI-55" d="M107 637Q73 637 71 641Q70 643 70 649Q70 673 81 682Q83 683 98 683Q139 681 234 681Q268 681 297 681T342 682T362 682Q378 682 378 672Q378 670 376 658Q371 641 366 638H364Q362 638 359 638T352 638T343 637T334 637Q295 636 284 634T266 623Q265 621 238 518T184 302T154 169Q152 155 152 140Q152 86 183 55T269 24Q336 24 403 69T501 205L552 406Q599 598 599 606Q599 633 535 637Q511 637 511 648Q511 650 513 660Q517 676 519 679T529 683Q532 683 561 682T645 680Q696 680 723 681T752 682Q767 682 767 672Q767 650 759 642Q756 637 737 637Q666 633 648 597Q646 592 598 404Q557 235 548 205Q515 105 433 42T263 -22Q171 -22 116 34T60 167V183Q60 201 115 421Q164 622 164 628Q164 635 107 637Z"></path>
<path stroke-width="1" id="E1-MJMATHI-41" d="M208 74Q208 50 254 46Q272 46 272 35Q272 34 270 22Q267 8 264 4T251 0Q249 0 239 0T205 1T141 2Q70 2 50 0H42Q35 7 35 11Q37 38 48 46H62Q132 49 164 96Q170 102 345 401T523 704Q530 716 547 716H555H572Q578 707 578 706L606 383Q634 60 636 57Q641 46 701 46Q726 46 726 36Q726 34 723 22Q720 7 718 4T704 0Q701 0 690 0T651 1T578 2Q484 2 455 0H443Q437 6 437 9T439 27Q443 40 445 43L449 46H469Q523 49 533 63L521 213H283L249 155Q208 86 208 74ZM516 260Q516 271 504 416T490 562L463 519Q447 492 400 412L310 260L413 259Q516 259 516 260Z"></path>
<path stroke-width="1" id="E1-MJMATHI-4C" d="M228 637Q194 637 192 641Q191 643 191 649Q191 673 202 682Q204 683 217 683Q271 680 344 680Q485 680 506 683H518Q524 677 524 674T522 656Q517 641 513 637H475Q406 636 394 628Q387 624 380 600T313 336Q297 271 279 198T252 88L243 52Q243 48 252 48T311 46H328Q360 46 379 47T428 54T478 72T522 106T564 161Q580 191 594 228T611 270Q616 273 628 273H641Q647 264 647 262T627 203T583 83T557 9Q555 4 553 3T537 0T494 -1Q483 -1 418 -1T294 0H116Q32 0 32 10Q32 17 34 24Q39 43 44 45Q48 46 59 46H65Q92 46 125 49Q139 52 144 61Q147 65 216 339T285 628Q285 635 228 637Z"></path>
<path stroke-width="1" id="E1-MJMATHI-59" d="M66 637Q54 637 49 637T39 638T32 641T30 647T33 664T42 682Q44 683 56 683Q104 680 165 680Q288 680 306 683H316Q322 677 322 674T320 656Q316 643 310 637H298Q242 637 242 624Q242 619 292 477T343 333L346 336Q350 340 358 349T379 373T411 410T454 461Q546 568 561 587T577 618Q577 634 545 637Q528 637 528 647Q528 649 530 661Q533 676 535 679T549 683Q551 683 578 682T657 680Q684 680 713 681T746 682Q763 682 763 673Q763 669 760 657T755 643Q753 637 734 637Q662 632 617 587Q608 578 477 424L348 273L322 169Q295 62 295 57Q295 46 363 46Q379 46 384 45T390 35Q390 33 388 23Q384 6 382 4T366 1Q361 1 324 1T232 2Q170 2 138 2T102 1Q84 1 84 9Q84 14 87 24Q88 27 89 30T90 35T91 39T93 42T96 44T101 45T107 45T116 46T129 46Q168 47 180 50T198 63Q201 68 227 171L252 274L129 623Q128 624 127 625T125 627T122 629T118 631T113 633T105 634T96 635T83 636T66 637Z"></path>
<path stroke-width="1" id="E1-MJMAIN-31" d="M213 578L200 573Q186 568 160 563T102 556H83V602H102Q149 604 189 617T245 641T273 663Q275 666 285 666Q294 666 302 660V361L303 61Q310 54 315 52T339 48T401 46H427V0H416Q395 3 257 3Q121 3 100 0H88V46H114Q136 46 152 46T177 47T193 50T201 52T207 57T213 61V578Z"></path>
<path stroke-width="1" id="E1-MJMAIN-30" d="M96 585Q152 666 249 666Q297 666 345 640T423 548Q460 465 460 320Q460 165 417 83Q397 41 362 16T301 -15T250 -22Q224 -22 198 -16T137 16T82 83Q39 165 39 320Q39 494 96 585ZM321 597Q291 629 250 629Q208 629 178 597Q153 571 145 525T137 333Q137 175 145 125T181 46Q209 16 250 16Q290 16 318 46Q347 76 354 130T362 333Q362 478 354 524T321 597Z"></path>
<path stroke-width="1" id="E1-MJMAIN-2212" d="M84 237T84 250T98 270H679Q694 262 694 250T679 230H98Q84 237 84 250Z"></path>
<path stroke-width="1" id="E1-MJMAIN-39" d="M352 287Q304 211 232 211Q154 211 104 270T44 396Q42 412 42 436V444Q42 537 111 606Q171 666 243 666Q245 666 249 666T257 665H261Q273 665 286 663T323 651T370 619T413 560Q456 472 456 334Q456 194 396 97Q361 41 312 10T208 -22Q147 -22 108 7T68 93T121 149Q143 149 158 135T173 96Q173 78 164 65T148 49T135 44L131 43Q131 41 138 37T164 27T206 22H212Q272 22 313 86Q352 142 352 280V287ZM244 248Q292 248 321 297T351 430Q351 508 343 542Q341 552 337 562T323 588T293 615T246 625Q208 625 181 598Q160 576 154 546T147 441Q147 358 152 329T172 282Q197 248 244 248Z"></path>
<path stroke-width="1" id="E1-MJMAIN-35" d="M164 157Q164 133 148 117T109 101H102Q148 22 224 22Q294 22 326 82Q345 115 345 210Q345 313 318 349Q292 382 260 382H254Q176 382 136 314Q132 307 129 306T114 304Q97 304 95 310Q93 314 93 485V614Q93 664 98 664Q100 666 102 666Q103 666 123 658T178 642T253 634Q324 634 389 662Q397 666 402 666Q410 666 410 648V635Q328 538 205 538Q174 538 149 544L139 546V374Q158 388 169 396T205 412T256 420Q337 420 393 355T449 201Q449 109 385 44T229 -22Q148 -22 99 32T50 154Q50 178 61 192T84 210T107 214Q132 214 148 197T164 157Z"></path>
<path stroke-width="1" id="E1-MJMATHI-4F" d="M740 435Q740 320 676 213T511 42T304 -22Q207 -22 138 35T51 201Q50 209 50 244Q50 346 98 438T227 601Q351 704 476 704Q514 704 524 703Q621 689 680 617T740 435ZM637 476Q637 565 591 615T476 665Q396 665 322 605Q242 542 200 428T157 216Q157 126 200 73T314 19Q404 19 485 98T608 313Q637 408 637 476Z"></path>
<path stroke-width="1" id="E1-MJMATHI-53" d="M308 24Q367 24 416 76T466 197Q466 260 414 284Q308 311 278 321T236 341Q176 383 176 462Q176 523 208 573T273 648Q302 673 343 688T407 704H418H425Q521 704 564 640Q565 640 577 653T603 682T623 704Q624 704 627 704T632 705Q645 705 645 698T617 577T585 459T569 456Q549 456 549 465Q549 471 550 475Q550 478 551 494T553 520Q553 554 544 579T526 616T501 641Q465 662 419 662Q362 662 313 616T263 510Q263 480 278 458T319 427Q323 425 389 408T456 390Q490 379 522 342T554 242Q554 216 546 186Q541 164 528 137T492 78T426 18T332 -20Q320 -22 298 -22Q199 -22 144 33L134 44L106 13Q83 -14 78 -18T65 -22Q52 -22 52 -14Q52 -11 110 221Q112 227 130 227H143Q149 221 149 216Q149 214 148 207T144 186T142 153Q144 114 160 87T203 47T255 29T308 24Z"></path>
<path stroke-width="1" id="E1-MJMATHI-56" d="M52 648Q52 670 65 683H76Q118 680 181 680Q299 680 320 683H330Q336 677 336 674T334 656Q329 641 325 637H304Q282 635 274 635Q245 630 242 620Q242 618 271 369T301 118L374 235Q447 352 520 471T595 594Q599 601 599 609Q599 633 555 637Q537 637 537 648Q537 649 539 661Q542 675 545 679T558 683Q560 683 570 683T604 682T668 681Q737 681 755 683H762Q769 676 769 672Q769 655 760 640Q757 637 743 637Q730 636 719 635T698 630T682 623T670 615T660 608T652 599T645 592L452 282Q272 -9 266 -16Q263 -18 259 -21L241 -22H234Q216 -22 216 -15Q213 -9 177 305Q139 623 138 626Q133 637 76 637H59Q52 642 52 648Z"></path>
<path stroke-width="1" id="E1-MJMAIN-32" d="M109 429Q82 429 66 447T50 491Q50 562 103 614T235 666Q326 666 387 610T449 465Q449 422 429 383T381 315T301 241Q265 210 201 149L142 93L218 92Q375 92 385 97Q392 99 409 186V189H449V186Q448 183 436 95T421 3V0H50V19V31Q50 38 56 46T86 81Q115 113 136 137Q145 147 170 174T204 211T233 244T261 278T284 308T305 340T320 369T333 401T340 431T343 464Q343 527 309 573T212 619Q179 619 154 602T119 569T109 550Q109 549 114 549Q132 549 151 535T170 489Q170 464 154 447T109 429Z"></path>
<path stroke-width="1" id="E1-MJMATHI-46" d="M48 1Q31 1 31 11Q31 13 34 25Q38 41 42 43T65 46Q92 46 125 49Q139 52 144 61Q146 66 215 342T285 622Q285 629 281 629Q273 632 228 634H197Q191 640 191 642T193 659Q197 676 203 680H742Q749 676 749 669Q749 664 736 557T722 447Q720 440 702 440H690Q683 445 683 453Q683 454 686 477T689 530Q689 560 682 579T663 610T626 626T575 633T503 634H480Q398 633 393 631Q388 629 386 623Q385 622 352 492L320 363H375Q378 363 398 363T426 364T448 367T472 374T489 386Q502 398 511 419T524 457T529 475Q532 480 548 480H560Q567 475 567 470Q567 467 536 339T502 207Q500 200 482 200H470Q463 206 463 212Q463 215 468 234T473 274Q473 303 453 310T364 317H309L277 190Q245 66 245 60Q245 46 334 46H359Q365 40 365 39T363 19Q359 6 353 0H336Q295 2 185 2Q120 2 86 2T48 1Z"></path>
<path stroke-width="1" id="E1-MJMATHI-61" d="M33 157Q33 258 109 349T280 441Q331 441 370 392Q386 422 416 422Q429 422 439 414T449 394Q449 381 412 234T374 68Q374 43 381 35T402 26Q411 27 422 35Q443 55 463 131Q469 151 473 152Q475 153 483 153H487Q506 153 506 144Q506 138 501 117T481 63T449 13Q436 0 417 -8Q409 -10 393 -10Q359 -10 336 5T306 36L300 51Q299 52 296 50Q294 48 292 46Q233 -10 172 -10Q117 -10 75 30T33 157ZM351 328Q351 334 346 350T323 385T277 405Q242 405 210 374T160 293Q131 214 119 129Q119 126 119 118T118 106Q118 61 136 44T179 26Q217 26 254 59T298 110Q300 114 325 217T351 328Z"></path>
<path stroke-width="1" id="E1-MJMATHI-6C" d="M117 59Q117 26 142 26Q179 26 205 131Q211 151 215 152Q217 153 225 153H229Q238 153 241 153T246 151T248 144Q247 138 245 128T234 90T214 43T183 6T137 -11Q101 -11 70 11T38 85Q38 97 39 102L104 360Q167 615 167 623Q167 626 166 628T162 632T157 634T149 635T141 636T132 637T122 637Q112 637 109 637T101 638T95 641T94 647Q94 649 96 661Q101 680 107 682T179 688Q194 689 213 690T243 693T254 694Q266 694 266 686Q266 675 193 386T118 83Q118 81 118 75T117 65V59Z"></path>
<path stroke-width="1" id="E1-MJMATHI-73" d="M131 289Q131 321 147 354T203 415T300 442Q362 442 390 415T419 355Q419 323 402 308T364 292Q351 292 340 300T328 326Q328 342 337 354T354 372T367 378Q368 378 368 379Q368 382 361 388T336 399T297 405Q249 405 227 379T204 326Q204 301 223 291T278 274T330 259Q396 230 396 163Q396 135 385 107T352 51T289 7T195 -10Q118 -10 86 19T53 87Q53 126 74 143T118 160Q133 160 146 151T160 120Q160 94 142 76T111 58Q109 57 108 57T107 55Q108 52 115 47T146 34T201 27Q237 27 263 38T301 66T318 97T323 122Q323 150 302 164T254 181T195 196T148 231Q131 256 131 289Z"></path>
<path stroke-width="1" id="E1-MJMATHI-65" d="M39 168Q39 225 58 272T107 350T174 402T244 433T307 442H310Q355 442 388 420T421 355Q421 265 310 237Q261 224 176 223Q139 223 138 221Q138 219 132 186T125 128Q125 81 146 54T209 26T302 45T394 111Q403 121 406 121Q410 121 419 112T429 98T420 82T390 55T344 24T281 -1T205 -11Q126 -11 83 42T39 168ZM373 353Q367 405 305 405Q272 405 244 391T199 357T170 316T154 280T149 261Q149 260 169 260Q282 260 327 284T373 353Z"></path>
<path stroke-width="1" id="E1-MJMATHI-5A" d="M58 8Q58 23 64 35Q64 36 329 334T596 635L586 637Q575 637 512 637H500H476Q442 637 420 635T365 624T311 598T266 548T228 469Q227 466 226 463T224 458T223 453T222 450L221 448Q218 443 202 443Q185 443 182 453L214 561Q228 606 241 651Q249 679 253 681Q256 683 487 683H718Q723 678 723 675Q723 673 717 649Q189 54 188 52L185 49H274Q369 50 377 51Q452 60 500 100T579 247Q587 272 590 277T603 282H607Q628 282 628 271Q547 5 541 2Q538 0 300 0H124Q58 0 58 8Z"></path>
<path stroke-width="1" id="E1-MJMAIN-33" d="M127 463Q100 463 85 480T69 524Q69 579 117 622T233 665Q268 665 277 664Q351 652 390 611T430 522Q430 470 396 421T302 350L299 348Q299 347 308 345T337 336T375 315Q457 262 457 175Q457 96 395 37T238 -22Q158 -22 100 21T42 130Q42 158 60 175T105 193Q133 193 151 175T169 130Q169 119 166 110T159 94T148 82T136 74T126 70T118 67L114 66Q165 21 238 21Q293 21 321 74Q338 107 338 175V195Q338 290 274 322Q259 328 213 329L171 330L168 332Q166 335 166 348Q166 366 174 366Q202 366 232 371Q266 376 294 413T322 525V533Q322 590 287 612Q265 626 240 626Q208 626 181 615T143 592T132 580H135Q138 579 143 578T153 573T165 566T175 555T183 540T186 520Q186 498 172 481T127 463Z"></path>
<path stroke-width="1" id="E1-MJMATHI-43" d="M50 252Q50 367 117 473T286 641T490 704Q580 704 633 653Q642 643 648 636T656 626L657 623Q660 623 684 649Q691 655 699 663T715 679T725 690L740 705H746Q760 705 760 698Q760 694 728 561Q692 422 692 421Q690 416 687 415T669 413H653Q647 419 647 422Q647 423 648 429T650 449T651 481Q651 552 619 605T510 659Q484 659 454 652T382 628T299 572T226 479Q194 422 175 346T156 222Q156 108 232 58Q280 24 350 24Q441 24 512 92T606 240Q610 253 612 255T628 257Q648 257 648 248Q648 243 647 239Q618 132 523 55T319 -22Q206 -22 128 53T50 252Z"></path>
<path stroke-width="1" id="E1-MJMATHI-48" d="M228 637Q194 637 192 641Q191 643 191 649Q191 673 202 682Q204 683 219 683Q260 681 355 681Q389 681 418 681T463 682T483 682Q499 682 499 672Q499 670 497 658Q492 641 487 638H485Q483 638 480 638T473 638T464 637T455 637Q416 636 405 634T387 623Q384 619 355 500Q348 474 340 442T328 395L324 380Q324 378 469 378H614L615 381Q615 384 646 504Q674 619 674 627T617 637Q594 637 587 639T580 648Q580 650 582 660Q586 677 588 679T604 682Q609 682 646 681T740 680Q802 680 835 681T871 682Q888 682 888 672Q888 645 876 638H874Q872 638 869 638T862 638T853 637T844 637Q805 636 794 634T776 623Q773 618 704 340T634 58Q634 51 638 51Q646 48 692 46H723Q729 38 729 37T726 19Q722 6 716 0H701Q664 2 567 2Q533 2 504 2T458 2T437 1Q420 1 420 10Q420 15 423 24Q428 43 433 45Q437 46 448 46H454Q481 46 514 49Q520 50 522 50T528 55T534 64T540 82T547 110T558 153Q565 181 569 198Q602 330 602 331T457 332H312L279 197Q245 63 245 58Q245 51 253 49T303 46H334Q340 38 340 37T337 19Q333 6 327 0H312Q275 2 178 2Q144 2 115 2T69 2T48 1Q31 1 31 10Q31 12 34 24Q39 43 44 45Q48 46 59 46H65Q92 46 125 49Q139 52 144 61Q147 65 216 339T285 628Q285 635 228 637Z"></path>
<path stroke-width="1" id="E1-MJMAIN-36" d="M42 313Q42 476 123 571T303 666Q372 666 402 630T432 550Q432 525 418 510T379 495Q356 495 341 509T326 548Q326 592 373 601Q351 623 311 626Q240 626 194 566Q147 500 147 364L148 360Q153 366 156 373Q197 433 263 433H267Q313 433 348 414Q372 400 396 374T435 317Q456 268 456 210V192Q456 169 451 149Q440 90 387 34T253 -22Q225 -22 199 -14T143 16T92 75T56 172T42 313ZM257 397Q227 397 205 380T171 335T154 278T148 216Q148 133 160 97T198 39Q222 21 251 21Q302 21 329 59Q342 77 347 104T352 209Q352 289 347 316T329 361Q302 397 257 397Z"></path>
<path stroke-width="1" id="E1-MJMATHI-4E" d="M234 637Q231 637 226 637Q201 637 196 638T191 649Q191 676 202 682Q204 683 299 683Q376 683 387 683T401 677Q612 181 616 168L670 381Q723 592 723 606Q723 633 659 637Q635 637 635 648Q635 650 637 660Q641 676 643 679T653 683Q656 683 684 682T767 680Q817 680 843 681T873 682Q888 682 888 672Q888 650 880 642Q878 637 858 637Q787 633 769 597L620 7Q618 0 599 0Q585 0 582 2Q579 5 453 305L326 604L261 344Q196 88 196 79Q201 46 268 46H278Q284 41 284 38T282 19Q278 6 272 0H259Q228 2 151 2Q123 2 100 2T63 2T46 1Q31 1 31 10Q31 14 34 26T39 40Q41 46 62 46Q130 49 150 85Q154 91 221 362L289 634Q287 635 234 637Z"></path>
</defs>
<g stroke="currentColor" fill="currentColor" stroke-width="0" transform="matrix(1 0 0 -1 0 0)">
<g transform="translate(167,0)">
<g transform="translate(389,0)">
<g transform="translate(7559,23897)">
<text font-family="monospace" stroke="none" transform="scale(71.759) matrix(1 0 0 -1 0 0)">标</text>
<g transform="translate(1148,0)">
<text font-family="monospace" stroke="none" transform="scale(71.759) matrix(1 0 0 -1 0 0)">志</text>
</g>
<g transform="translate(2296,0)">
<text font-family="monospace" stroke="none" transform="scale(71.759) matrix(1 0 0 -1 0 0)">参</text>
</g>
<g transform="translate(3444,0)">
<text font-family="monospace" stroke="none" transform="scale(71.759) matrix(1 0 0 -1 0 0)">数</text>
</g>
</g>
<g transform="translate(2737,22205)">
 <use xlink:href="#E1-MJMATHI-49" x="0" y="0"></use>
 <use xlink:href="#E1-MJMATHI-4D" x="504" y="0"></use>
 <use xlink:href="#E1-MJMATHI-57" x="1556" y="0"></use>
 <use xlink:href="#E1-MJMATHI-52" x="2604" y="0"></use>
 <use xlink:href="#E1-MJMATHI-49" x="3364" y="0"></use>
 <use xlink:href="#E1-MJMATHI-54" x="3868" y="0"></use>
 <use xlink:href="#E1-MJMATHI-45" x="4573" y="0"></use>
 <use xlink:href="#E1-MJMAIN-5F" x="5337" y="0"></use>
 <use xlink:href="#E1-MJMATHI-4A" x="5838" y="0"></use>
 <use xlink:href="#E1-MJMATHI-50" x="6471" y="0"></use>
 <use xlink:href="#E1-MJMATHI-45" x="7223" y="0"></use>
 <use xlink:href="#E1-MJMATHI-47" x="7987" y="0"></use>
 <use xlink:href="#E1-MJMAIN-5F" x="8774" y="0"></use>
 <use xlink:href="#E1-MJMATHI-51" x="9274" y="0"></use>
 <use xlink:href="#E1-MJMATHI-55" x="10066" y="0"></use>
 <use xlink:href="#E1-MJMATHI-41" x="10833" y="0"></use>
 <use xlink:href="#E1-MJMATHI-4C" x="11584" y="0"></use>
 <use xlink:href="#E1-MJMATHI-49" x="12265" y="0"></use>
 <use xlink:href="#E1-MJMATHI-54" x="12770" y="0"></use>
 <use xlink:href="#E1-MJMATHI-59" x="13474" y="0"></use>
</g>
<g transform="translate(1514,18791)">
 <use xlink:href="#E1-MJMATHI-4D" x="0" y="0"></use>
 <use xlink:href="#E1-MJMATHI-57" x="1051" y="0"></use>
 <use xlink:href="#E1-MJMATHI-52" x="2100" y="0"></use>
 <use xlink:href="#E1-MJMATHI-49" x="2859" y="0"></use>
 <use xlink:href="#E1-MJMATHI-54" x="3364" y="0"></use>
 <use xlink:href="#E1-MJMATHI-45" x="4068" y="0"></use>
 <use xlink:href="#E1-MJMAIN-5F" x="4833" y="0"></use>
 <use xlink:href="#E1-MJMATHI-4A" x="5333" y="0"></use>
 <use xlink:href="#E1-MJMATHI-50" x="5967" y="0"></use>
 <use xlink:href="#E1-MJMATHI-45" x="6718" y="0"></use>
 <use xlink:href="#E1-MJMATHI-47" x="7483" y="0"></use>
 <use xlink:href="#E1-MJMAIN-5F" x="8269" y="0"></use>
 <use xlink:href="#E1-MJMATHI-50" x="8770" y="0"></use>
 <use xlink:href="#E1-MJMATHI-52" x="9521" y="0"></use>
 <use xlink:href="#E1-MJMATHI-4F" x="10281" y="0"></use>
 <use xlink:href="#E1-MJMATHI-47" x="11044" y="0"></use>
 <use xlink:href="#E1-MJMATHI-52" x="11831" y="0"></use>
 <use xlink:href="#E1-MJMATHI-45" x="12590" y="0"></use>
 <use xlink:href="#E1-MJMATHI-53" x="13355" y="0"></use>
 <use xlink:href="#E1-MJMATHI-53" x="14000" y="0"></use>
 <use xlink:href="#E1-MJMATHI-49" x="14646" y="0"></use>
 <use xlink:href="#E1-MJMATHI-56" x="15150" y="0"></use>
 <use xlink:href="#E1-MJMATHI-45" x="15920" y="0"></use>
</g>
<g transform="translate(2335,15377)">
 <use xlink:href="#E1-MJMATHI-49" x="0" y="0"></use>
 <use xlink:href="#E1-MJMATHI-4D" x="504" y="0"></use>
 <use xlink:href="#E1-MJMATHI-57" x="1556" y="0"></use>
 <use xlink:href="#E1-MJMATHI-52" x="2604" y="0"></use>
 <use xlink:href="#E1-MJMATHI-49" x="3364" y="0"></use>
 <use xlink:href="#E1-MJMATHI-54" x="3868" y="0"></use>
 <use xlink:href="#E1-MJMATHI-45" x="4573" y="0"></use>
 <use xlink:href="#E1-MJMAIN-5F" x="5337" y="0"></use>
 <use xlink:href="#E1-MJMATHI-4A" x="5838" y="0"></use>
 <use xlink:href="#E1-MJMATHI-50" x="6471" y="0"></use>
 <use xlink:href="#E1-MJMATHI-45" x="7223" y="0"></use>
 <use xlink:href="#E1-MJMATHI-47" x="7987" y="0"></use>
 <use xlink:href="#E1-MJMAIN-5F" x="8774" y="0"></use>
 <use xlink:href="#E1-MJMATHI-4F" x="9274" y="0"></use>
 <use xlink:href="#E1-MJMATHI-50" x="10038" y="0"></use>
 <use xlink:href="#E1-MJMATHI-54" x="10789" y="0"></use>
 <use xlink:href="#E1-MJMATHI-49" x="11494" y="0"></use>
 <use xlink:href="#E1-MJMATHI-4D" x="11998" y="0"></use>
 <use xlink:href="#E1-MJMATHI-49" x="13050" y="0"></use>
 <use xlink:href="#E1-MJMATHI-5A" x="13554" y="0"></use>
 <use xlink:href="#E1-MJMATHI-45" x="14278" y="0"></use>
</g>
<g transform="translate(861,11963)">
 <use xlink:href="#E1-MJMATHI-49" x="0" y="0"></use>
 <use xlink:href="#E1-MJMATHI-4D" x="504" y="0"></use>
 <use xlink:href="#E1-MJMATHI-57" x="1556" y="0"></use>
 <use xlink:href="#E1-MJMATHI-52" x="2604" y="0"></use>
 <use xlink:href="#E1-MJMATHI-49" x="3364" y="0"></use>
 <use xlink:href="#E1-MJMATHI-54" x="3868" y="0"></use>
 <use xlink:href="#E1-MJMATHI-45" x="4573" y="0"></use>
 <use xlink:href="#E1-MJMAIN-5F" x="5337" y="0"></use>
 <use xlink:href="#E1-MJMATHI-4A" x="5838" y="0"></use>
 <use xlink:href="#E1-MJMATHI-50" x="6471" y="0"></use>
 <use xlink:href="#E1-MJMATHI-45" x="7223" y="0"></use>
 <use xlink:href="#E1-MJMATHI-47" x="7987" y="0"></use>
 <use xlink:href="#E1-MJMAIN-5F" x="8774" y="0"></use>
 <use xlink:href="#E1-MJMATHI-4C" x="9274" y="0"></use>
 <use xlink:href="#E1-MJMATHI-55" x="9956" y="0"></use>
 <use xlink:href="#E1-MJMATHI-4D" x="10723" y="0"></use>
 <use xlink:href="#E1-MJMATHI-41" x="11775" y="0"></use>
 <use xlink:href="#E1-MJMAIN-5F" x="12525" y="0"></use>
 <use xlink:href="#E1-MJMATHI-51" x="13026" y="0"></use>
 <use xlink:href="#E1-MJMATHI-55" x="13817" y="0"></use>
 <use xlink:href="#E1-MJMATHI-41" x="14585" y="0"></use>
 <use xlink:href="#E1-MJMATHI-4C" x="15335" y="0"></use>
 <use xlink:href="#E1-MJMATHI-49" x="16017" y="0"></use>
 <use xlink:href="#E1-MJMATHI-54" x="16521" y="0"></use>
 <use xlink:href="#E1-MJMATHI-59" x="17226" y="0"></use>
</g>
<g transform="translate(0,8549)">
 <use xlink:href="#E1-MJMATHI-49" x="0" y="0"></use>
 <use xlink:href="#E1-MJMATHI-4D" x="504" y="0"></use>
 <use xlink:href="#E1-MJMATHI-57" x="1556" y="0"></use>
 <use xlink:href="#E1-MJMATHI-52" x="2604" y="0"></use>
 <use xlink:href="#E1-MJMATHI-49" x="3364" y="0"></use>
 <use xlink:href="#E1-MJMATHI-54" x="3868" y="0"></use>
 <use xlink:href="#E1-MJMATHI-45" x="4573" y="0"></use>
 <use xlink:href="#E1-MJMAIN-5F" x="5337" y="0"></use>
 <use xlink:href="#E1-MJMATHI-4A" x="5838" y="0"></use>
 <use xlink:href="#E1-MJMATHI-50" x="6471" y="0"></use>
 <use xlink:href="#E1-MJMATHI-45" x="7223" y="0"></use>
 <use xlink:href="#E1-MJMATHI-47" x="7987" y="0"></use>
 <use xlink:href="#E1-MJMAIN-5F" x="8774" y="0"></use>
 <use xlink:href="#E1-MJMATHI-43" x="9274" y="0"></use>
 <use xlink:href="#E1-MJMATHI-48" x="10035" y="0"></use>
 <use xlink:href="#E1-MJMATHI-52" x="10923" y="0"></use>
 <use xlink:href="#E1-MJMATHI-4F" x="11683" y="0"></use>
 <use xlink:href="#E1-MJMATHI-4D" x="12446" y="0"></use>
 <use xlink:href="#E1-MJMATHI-41" x="13498" y="0"></use>
 <use xlink:href="#E1-MJMAIN-5F" x="14248" y="0"></use>
 <use xlink:href="#E1-MJMATHI-51" x="14749" y="0"></use>
 <use xlink:href="#E1-MJMATHI-55" x="15540" y="0"></use>
 <use xlink:href="#E1-MJMATHI-41" x="16308" y="0"></use>
 <use xlink:href="#E1-MJMATHI-4C" x="17058" y="0"></use>
 <use xlink:href="#E1-MJMATHI-49" x="17740" y="0"></use>
 <use xlink:href="#E1-MJMATHI-54" x="18244" y="0"></use>
 <use xlink:href="#E1-MJMATHI-59" x="18949" y="0"></use>
</g>
<g transform="translate(1324,5136)">
 <use xlink:href="#E1-MJMATHI-49" x="0" y="0"></use>
 <use xlink:href="#E1-MJMATHI-4D" x="504" y="0"></use>
 <use xlink:href="#E1-MJMATHI-57" x="1556" y="0"></use>
 <use xlink:href="#E1-MJMATHI-52" x="2604" y="0"></use>
 <use xlink:href="#E1-MJMATHI-49" x="3364" y="0"></use>
 <use xlink:href="#E1-MJMATHI-54" x="3868" y="0"></use>
 <use xlink:href="#E1-MJMATHI-45" x="4573" y="0"></use>
 <use xlink:href="#E1-MJMAIN-5F" x="5337" y="0"></use>
 <use xlink:href="#E1-MJMATHI-50" x="5838" y="0"></use>
 <use xlink:href="#E1-MJMATHI-4E" x="6589" y="0"></use>
 <use xlink:href="#E1-MJMATHI-47" x="7478" y="0"></use>
 <use xlink:href="#E1-MJMAIN-5F" x="8264" y="0"></use>
 <use xlink:href="#E1-MJMATHI-43" x="8765" y="0"></use>
 <use xlink:href="#E1-MJMATHI-4F" x="9525" y="0"></use>
 <use xlink:href="#E1-MJMATHI-4D" x="10289" y="0"></use>
 <use xlink:href="#E1-MJMATHI-50" x="11340" y="0"></use>
 <use xlink:href="#E1-MJMATHI-52" x="12092" y="0"></use>
 <use xlink:href="#E1-MJMATHI-45" x="12851" y="0"></use>
 <use xlink:href="#E1-MJMATHI-53" x="13616" y="0"></use>
 <use xlink:href="#E1-MJMATHI-53" x="14261" y="0"></use>
 <use xlink:href="#E1-MJMATHI-49" x="14907" y="0"></use>
 <use xlink:href="#E1-MJMATHI-4F" x="15411" y="0"></use>
 <use xlink:href="#E1-MJMATHI-4E" x="16175" y="0"></use>
</g>
<g transform="translate(1183,-1)">
 <use xlink:href="#E1-MJMATHI-49" x="0" y="0"></use>
 <use xlink:href="#E1-MJMATHI-4D" x="504" y="0"></use>
 <use xlink:href="#E1-MJMATHI-57" x="1556" y="0"></use>
 <use xlink:href="#E1-MJMATHI-52" x="2604" y="0"></use>
 <use xlink:href="#E1-MJMATHI-49" x="3364" y="0"></use>
 <use xlink:href="#E1-MJMATHI-54" x="3868" y="0"></use>
 <use xlink:href="#E1-MJMATHI-45" x="4573" y="0"></use>
 <use xlink:href="#E1-MJMAIN-5F" x="5337" y="0"></use>
 <use xlink:href="#E1-MJMATHI-54" x="5838" y="0"></use>
 <use xlink:href="#E1-MJMATHI-49" x="6542" y="0"></use>
 <use xlink:href="#E1-MJMATHI-46" x="7047" y="0"></use>
 <use xlink:href="#E1-MJMATHI-46" x="7796" y="0"></use>
 <use xlink:href="#E1-MJMAIN-5F" x="8546" y="0"></use>
 <use xlink:href="#E1-MJMATHI-43" x="9046" y="0"></use>
 <use xlink:href="#E1-MJMATHI-4F" x="9807" y="0"></use>
 <use xlink:href="#E1-MJMATHI-4D" x="10570" y="0"></use>
 <use xlink:href="#E1-MJMATHI-50" x="11622" y="0"></use>
 <use xlink:href="#E1-MJMATHI-52" x="12373" y="0"></use>
 <use xlink:href="#E1-MJMATHI-45" x="13133" y="0"></use>
 <use xlink:href="#E1-MJMATHI-53" x="13897" y="0"></use>
 <use xlink:href="#E1-MJMATHI-53" x="14543" y="0"></use>
 <use xlink:href="#E1-MJMATHI-49" x="15188" y="0"></use>
 <use xlink:href="#E1-MJMATHI-4F" x="15693" y="0"></use>
 <use xlink:href="#E1-MJMATHI-4E" x="16456" y="0"></use>
</g>
</g>
<line stroke-linecap="square" stroke-width="20.9" y1="10" x2="10" x1="10" y2="25608" transform="translate(20602,-646)"></line>
<g transform="translate(21102,0)">
<g transform="translate(0,23897)">
<text font-family="monospace" stroke="none" transform="scale(71.759) matrix(1 0 0 -1 0 0)">简</text>
<g transform="translate(1148,0)">
<text font-family="monospace" stroke="none" transform="scale(71.759) matrix(1 0 0 -1 0 0)">记</text>
</g>
</g>
 <use xlink:href="#E1-MJMAIN-31" x="897" y="22205"></use>
 <use xlink:href="#E1-MJMAIN-32" x="897" y="18791"></use>
 <use xlink:href="#E1-MJMAIN-33" x="897" y="15377"></use>
 <use xlink:href="#E1-MJMAIN-35" x="897" y="11963"></use>
 <use xlink:href="#E1-MJMAIN-36" x="897" y="8549"></use>
<g transform="translate(647,5136)">
 <use xlink:href="#E1-MJMAIN-31"></use>
 <use xlink:href="#E1-MJMAIN-36" x="500" y="0"></use>
</g>
<g transform="translate(397,-1)">
 <use xlink:href="#E1-MJMAIN-32"></use>
 <use xlink:href="#E1-MJMAIN-35" x="500" y="0"></use>
 <use xlink:href="#E1-MJMAIN-39" x="1001" y="0"></use>
</g>
</g>
<line stroke-linecap="square" stroke-width="20.9" y1="10" x2="10" x1="10" y2="25608" transform="translate(23898,-646)"></line>
<g transform="translate(24398,0)">
<g transform="translate(9759,23897)">
<text font-family="monospace" stroke="none" transform="scale(71.759) matrix(1 0 0 -1 0 0)">作</text>
<g transform="translate(1148,0)">
<text font-family="monospace" stroke="none" transform="scale(71.759) matrix(1 0 0 -1 0 0)">用</text>
</g>
</g>
<g transform="translate(1402,22205)">
<text font-family="monospace" stroke="none" transform="scale(71.759) matrix(1 0 0 -1 0 0)">保</text>
<g transform="translate(1148,0)">
<text font-family="monospace" stroke="none" transform="scale(71.759) matrix(1 0 0 -1 0 0)">存</text>
</g>
<g transform="translate(2296,0)">
<text font-family="monospace" stroke="none" transform="scale(71.759) matrix(1 0 0 -1 0 0)">成</text>
</g>
 <use xlink:href="#E1-MJMATHI-4A" x="3444" y="0"></use>
 <use xlink:href="#E1-MJMATHI-50" x="4077" y="0"></use>
 <use xlink:href="#E1-MJMATHI-45" x="4829" y="0"></use>
 <use xlink:href="#E1-MJMATHI-47" x="5593" y="0"></use>
<g transform="translate(6380,0)">
<text font-family="monospace" stroke="none" transform="scale(71.759) matrix(1 0 0 -1 0 0)">格</text>
</g>
<g transform="translate(7528,0)">
<text font-family="monospace" stroke="none" transform="scale(71.759) matrix(1 0 0 -1 0 0)">式</text>
</g>
<g transform="translate(8676,0)">
<text font-family="monospace" stroke="none" transform="scale(71.759) matrix(1 0 0 -1 0 0)">的</text>
</g>
<g transform="translate(9824,0)">
<text font-family="monospace" stroke="none" transform="scale(71.759) matrix(1 0 0 -1 0 0)">文</text>
</g>
<g transform="translate(10973,0)">
<text font-family="monospace" stroke="none" transform="scale(71.759) matrix(1 0 0 -1 0 0)">件</text>
</g>
<g transform="translate(12121,0)">
<text font-family="monospace" stroke="none" transform="scale(71.759) matrix(1 0 0 -1 0 0)">的</text>
</g>
<g transform="translate(13269,0)">
<text font-family="monospace" stroke="none" transform="scale(71.759) matrix(1 0 0 -1 0 0)">图</text>
</g>
<g transform="translate(14417,0)">
<text font-family="monospace" stroke="none" transform="scale(71.759) matrix(1 0 0 -1 0 0)">像</text>
</g>
<g transform="translate(15565,0)">
<text font-family="monospace" stroke="none" transform="scale(71.759) matrix(1 0 0 -1 0 0)">质</text>
</g>
<g transform="translate(16713,0)">
<text font-family="monospace" stroke="none" transform="scale(71.759) matrix(1 0 0 -1 0 0)">量</text>
</g>
<g transform="translate(17861,0)">
<text font-family="monospace" stroke="none" transform="scale(71.759) matrix(1 0 0 -1 0 0)">，</text>
</g>
<g transform="translate(0,-1723)">
<text font-family="monospace" stroke="none" transform="scale(71.759) matrix(1 0 0 -1 0 0)">分</text>
<g transform="translate(1148,0)">
<text font-family="monospace" stroke="none" transform="scale(71.759) matrix(1 0 0 -1 0 0)">成</text>
</g>
 <use xlink:href="#E1-MJMAIN-30" x="2296" y="0"></use>
 <use xlink:href="#E1-MJMAIN-2212" x="3019" y="0"></use>
<g transform="translate(4019,0)">
 <use xlink:href="#E1-MJMAIN-31"></use>
 <use xlink:href="#E1-MJMAIN-30" x="500" y="0"></use>
 <use xlink:href="#E1-MJMAIN-30" x="1001" y="0"></use>
</g>
<g transform="translate(5521,0)">
<text font-family="monospace" stroke="none" transform="scale(71.759) matrix(1 0 0 -1 0 0)">等</text>
</g>
<g transform="translate(6669,0)">
<text font-family="monospace" stroke="none" transform="scale(71.759) matrix(1 0 0 -1 0 0)">级</text>
</g>
<g transform="translate(7817,0)">
<text font-family="monospace" stroke="none" transform="scale(71.759) matrix(1 0 0 -1 0 0)">，</text>
</g>
<g transform="translate(8965,0)">
<text font-family="monospace" stroke="none" transform="scale(71.759) matrix(1 0 0 -1 0 0)">默</text>
</g>
<g transform="translate(10113,0)">
<text font-family="monospace" stroke="none" transform="scale(71.759) matrix(1 0 0 -1 0 0)">认</text>
</g>
<g transform="translate(11261,0)">
 <use xlink:href="#E1-MJMAIN-39"></use>
 <use xlink:href="#E1-MJMAIN-35" x="500" y="0"></use>
</g>
</g>
</g>
<g transform="translate(4022,18791)">
<text font-family="monospace" stroke="none" transform="scale(71.759) matrix(1 0 0 -1 0 0)">增</text>
<g transform="translate(1148,0)">
<text font-family="monospace" stroke="none" transform="scale(71.759) matrix(1 0 0 -1 0 0)">强</text>
</g>
 <use xlink:href="#E1-MJMATHI-4A" x="2296" y="0"></use>
 <use xlink:href="#E1-MJMATHI-50" x="2929" y="0"></use>
 <use xlink:href="#E1-MJMATHI-45" x="3681" y="0"></use>
 <use xlink:href="#E1-MJMATHI-47" x="4445" y="0"></use>
<g transform="translate(5232,0)">
<text font-family="monospace" stroke="none" transform="scale(71.759) matrix(1 0 0 -1 0 0)">格</text>
</g>
<g transform="translate(6380,0)">
<text font-family="monospace" stroke="none" transform="scale(71.759) matrix(1 0 0 -1 0 0)">式</text>
</g>
<g transform="translate(7528,0)">
<text font-family="monospace" stroke="none" transform="scale(71.759) matrix(1 0 0 -1 0 0)">，</text>
</g>
<g transform="translate(8676,0)">
<text font-family="monospace" stroke="none" transform="scale(71.759) matrix(1 0 0 -1 0 0)">启</text>
</g>
<g transform="translate(9824,0)">
<text font-family="monospace" stroke="none" transform="scale(71.759) matrix(1 0 0 -1 0 0)">用</text>
</g>
<g transform="translate(10973,0)">
<text font-family="monospace" stroke="none" transform="scale(71.759) matrix(1 0 0 -1 0 0)">为</text>
</g>
 <use xlink:href="#E1-MJMAIN-31" x="12121" y="0"></use>
<g transform="translate(12621,0)">
<text font-family="monospace" stroke="none" transform="scale(71.759) matrix(1 0 0 -1 0 0)">，</text>
</g>
<g transform="translate(0,-1723)">
<text font-family="monospace" stroke="none" transform="scale(71.759) matrix(1 0 0 -1 0 0)">默</text>
<g transform="translate(1148,0)">
<text font-family="monospace" stroke="none" transform="scale(71.759) matrix(1 0 0 -1 0 0)">认</text>
</g>
<g transform="translate(2296,0)">
<text font-family="monospace" stroke="none" transform="scale(71.759) matrix(1 0 0 -1 0 0)">值</text>
</g>
<g transform="translate(3444,0)">
<text font-family="monospace" stroke="none" transform="scale(71.759) matrix(1 0 0 -1 0 0)">为</text>
</g>
 <use xlink:href="#E1-MJMAIN-30" x="4592" y="0"></use>
<g transform="translate(5093,0)">
<text font-family="monospace" stroke="none" transform="scale(71.759) matrix(1 0 0 -1 0 0)">（</text>
</g>
 <use xlink:href="#E1-MJMATHI-46" x="6241" y="0"></use>
 <use xlink:href="#E1-MJMATHI-61" x="6990" y="0"></use>
 <use xlink:href="#E1-MJMATHI-6C" x="7520" y="0"></use>
 <use xlink:href="#E1-MJMATHI-73" x="7818" y="0"></use>
 <use xlink:href="#E1-MJMATHI-65" x="8288" y="0"></use>
<g transform="translate(8754,0)">
<text font-family="monospace" stroke="none" transform="scale(71.759) matrix(1 0 0 -1 0 0)">）</text>
</g>
</g>
</g>
<g transform="translate(2300,15377)">
<text font-family="monospace" stroke="none" transform="scale(71.759) matrix(1 0 0 -1 0 0)">对</text>
 <use xlink:href="#E1-MJMATHI-4A" x="1148" y="0"></use>
 <use xlink:href="#E1-MJMATHI-50" x="1781" y="0"></use>
 <use xlink:href="#E1-MJMATHI-45" x="2533" y="0"></use>
 <use xlink:href="#E1-MJMATHI-47" x="3297" y="0"></use>
<g transform="translate(4084,0)">
<text font-family="monospace" stroke="none" transform="scale(71.759) matrix(1 0 0 -1 0 0)">格</text>
</g>
<g transform="translate(5232,0)">
<text font-family="monospace" stroke="none" transform="scale(71.759) matrix(1 0 0 -1 0 0)">式</text>
</g>
<g transform="translate(6380,0)">
<text font-family="monospace" stroke="none" transform="scale(71.759) matrix(1 0 0 -1 0 0)">进</text>
</g>
<g transform="translate(7528,0)">
<text font-family="monospace" stroke="none" transform="scale(71.759) matrix(1 0 0 -1 0 0)">行</text>
</g>
<g transform="translate(8676,0)">
<text font-family="monospace" stroke="none" transform="scale(71.759) matrix(1 0 0 -1 0 0)">优</text>
</g>
<g transform="translate(9824,0)">
<text font-family="monospace" stroke="none" transform="scale(71.759) matrix(1 0 0 -1 0 0)">化</text>
</g>
<g transform="translate(10973,0)">
<text font-family="monospace" stroke="none" transform="scale(71.759) matrix(1 0 0 -1 0 0)">，</text>
</g>
<g transform="translate(12121,0)">
<text font-family="monospace" stroke="none" transform="scale(71.759) matrix(1 0 0 -1 0 0)">启</text>
</g>
<g transform="translate(13269,0)">
<text font-family="monospace" stroke="none" transform="scale(71.759) matrix(1 0 0 -1 0 0)">用</text>
</g>
<g transform="translate(14417,0)">
<text font-family="monospace" stroke="none" transform="scale(71.759) matrix(1 0 0 -1 0 0)">为</text>
</g>
 <use xlink:href="#E1-MJMAIN-31" x="15565" y="0"></use>
<g transform="translate(16066,0)">
<text font-family="monospace" stroke="none" transform="scale(71.759) matrix(1 0 0 -1 0 0)">，</text>
</g>
<g transform="translate(0,-1723)">
<text font-family="monospace" stroke="none" transform="scale(71.759) matrix(1 0 0 -1 0 0)">默</text>
<g transform="translate(1148,0)">
<text font-family="monospace" stroke="none" transform="scale(71.759) matrix(1 0 0 -1 0 0)">认</text>
</g>
<g transform="translate(2296,0)">
<text font-family="monospace" stroke="none" transform="scale(71.759) matrix(1 0 0 -1 0 0)">参</text>
</g>
<g transform="translate(3444,0)">
<text font-family="monospace" stroke="none" transform="scale(71.759) matrix(1 0 0 -1 0 0)">数</text>
</g>
<g transform="translate(4592,0)">
<text font-family="monospace" stroke="none" transform="scale(71.759) matrix(1 0 0 -1 0 0)">为</text>
</g>
 <use xlink:href="#E1-MJMAIN-30" x="5740" y="0"></use>
<g transform="translate(6241,0)">
<text font-family="monospace" stroke="none" transform="scale(71.759) matrix(1 0 0 -1 0 0)">（</text>
</g>
 <use xlink:href="#E1-MJMATHI-46" x="7389" y="0"></use>
 <use xlink:href="#E1-MJMATHI-61" x="8138" y="0"></use>
 <use xlink:href="#E1-MJMATHI-6C" x="8668" y="0"></use>
 <use xlink:href="#E1-MJMATHI-73" x="8966" y="0"></use>
 <use xlink:href="#E1-MJMATHI-65" x="9436" y="0"></use>
<g transform="translate(9902,0)">
<text font-family="monospace" stroke="none" transform="scale(71.759) matrix(1 0 0 -1 0 0)">）</text>
</g>
</g>
</g>
<g transform="translate(1402,11963)">
 <use xlink:href="#E1-MJMATHI-4A" x="0" y="0"></use>
 <use xlink:href="#E1-MJMATHI-50" x="633" y="0"></use>
 <use xlink:href="#E1-MJMATHI-45" x="1385" y="0"></use>
 <use xlink:href="#E1-MJMATHI-47" x="2149" y="0"></use>
<g transform="translate(2936,0)">
<text font-family="monospace" stroke="none" transform="scale(71.759) matrix(1 0 0 -1 0 0)">格</text>
</g>
<g transform="translate(4084,0)">
<text font-family="monospace" stroke="none" transform="scale(71.759) matrix(1 0 0 -1 0 0)">式</text>
</g>
<g transform="translate(5232,0)">
<text font-family="monospace" stroke="none" transform="scale(71.759) matrix(1 0 0 -1 0 0)">文</text>
</g>
<g transform="translate(6380,0)">
<text font-family="monospace" stroke="none" transform="scale(71.759) matrix(1 0 0 -1 0 0)">件</text>
</g>
<g transform="translate(7528,0)">
<text font-family="monospace" stroke="none" transform="scale(71.759) matrix(1 0 0 -1 0 0)">单</text>
</g>
<g transform="translate(8676,0)">
<text font-family="monospace" stroke="none" transform="scale(71.759) matrix(1 0 0 -1 0 0)">独</text>
</g>
<g transform="translate(9824,0)">
<text font-family="monospace" stroke="none" transform="scale(71.759) matrix(1 0 0 -1 0 0)">的</text>
</g>
<g transform="translate(10973,0)">
<text font-family="monospace" stroke="none" transform="scale(71.759) matrix(1 0 0 -1 0 0)">亮</text>
</g>
<g transform="translate(12121,0)">
<text font-family="monospace" stroke="none" transform="scale(71.759) matrix(1 0 0 -1 0 0)">度</text>
</g>
<g transform="translate(13269,0)">
<text font-family="monospace" stroke="none" transform="scale(71.759) matrix(1 0 0 -1 0 0)">质</text>
</g>
<g transform="translate(14417,0)">
<text font-family="monospace" stroke="none" transform="scale(71.759) matrix(1 0 0 -1 0 0)">量</text>
</g>
<g transform="translate(15565,0)">
<text font-family="monospace" stroke="none" transform="scale(71.759) matrix(1 0 0 -1 0 0)">等</text>
</g>
<g transform="translate(16713,0)">
<text font-family="monospace" stroke="none" transform="scale(71.759) matrix(1 0 0 -1 0 0)">级</text>
</g>
<g transform="translate(17861,0)">
<text font-family="monospace" stroke="none" transform="scale(71.759) matrix(1 0 0 -1 0 0)">，</text>
</g>
<g transform="translate(0,-1723)">
<text font-family="monospace" stroke="none" transform="scale(71.759) matrix(1 0 0 -1 0 0)">分</text>
<g transform="translate(1148,0)">
<text font-family="monospace" stroke="none" transform="scale(71.759) matrix(1 0 0 -1 0 0)">成</text>
</g>
 <use xlink:href="#E1-MJMAIN-30" x="2296" y="0"></use>
 <use xlink:href="#E1-MJMAIN-2212" x="3019" y="0"></use>
<g transform="translate(4019,0)">
 <use xlink:href="#E1-MJMAIN-31"></use>
 <use xlink:href="#E1-MJMAIN-30" x="500" y="0"></use>
 <use xlink:href="#E1-MJMAIN-30" x="1001" y="0"></use>
</g>
<g transform="translate(5521,0)">
<text font-family="monospace" stroke="none" transform="scale(71.759) matrix(1 0 0 -1 0 0)">，</text>
</g>
<g transform="translate(6669,0)">
<text font-family="monospace" stroke="none" transform="scale(71.759) matrix(1 0 0 -1 0 0)">默</text>
</g>
<g transform="translate(7817,0)">
<text font-family="monospace" stroke="none" transform="scale(71.759) matrix(1 0 0 -1 0 0)">认</text>
</g>
<g transform="translate(8965,0)">
<text font-family="monospace" stroke="none" transform="scale(71.759) matrix(1 0 0 -1 0 0)">为</text>
</g>
 <use xlink:href="#E1-MJMAIN-30" x="10113" y="0"></use>
</g>
</g>
<g transform="translate(1402,8549)">
 <use xlink:href="#E1-MJMATHI-4A" x="0" y="0"></use>
 <use xlink:href="#E1-MJMATHI-50" x="633" y="0"></use>
 <use xlink:href="#E1-MJMATHI-45" x="1385" y="0"></use>
 <use xlink:href="#E1-MJMATHI-47" x="2149" y="0"></use>
<g transform="translate(2936,0)">
<text font-family="monospace" stroke="none" transform="scale(71.759) matrix(1 0 0 -1 0 0)">格</text>
</g>
<g transform="translate(4084,0)">
<text font-family="monospace" stroke="none" transform="scale(71.759) matrix(1 0 0 -1 0 0)">式</text>
</g>
<g transform="translate(5232,0)">
<text font-family="monospace" stroke="none" transform="scale(71.759) matrix(1 0 0 -1 0 0)">文</text>
</g>
<g transform="translate(6380,0)">
<text font-family="monospace" stroke="none" transform="scale(71.759) matrix(1 0 0 -1 0 0)">件</text>
</g>
<g transform="translate(7528,0)">
<text font-family="monospace" stroke="none" transform="scale(71.759) matrix(1 0 0 -1 0 0)">单</text>
</g>
<g transform="translate(8676,0)">
<text font-family="monospace" stroke="none" transform="scale(71.759) matrix(1 0 0 -1 0 0)">独</text>
</g>
<g transform="translate(9824,0)">
<text font-family="monospace" stroke="none" transform="scale(71.759) matrix(1 0 0 -1 0 0)">的</text>
</g>
<g transform="translate(10973,0)">
<text font-family="monospace" stroke="none" transform="scale(71.759) matrix(1 0 0 -1 0 0)">色</text>
</g>
<g transform="translate(12121,0)">
<text font-family="monospace" stroke="none" transform="scale(71.759) matrix(1 0 0 -1 0 0)">度</text>
</g>
<g transform="translate(13269,0)">
<text font-family="monospace" stroke="none" transform="scale(71.759) matrix(1 0 0 -1 0 0)">质</text>
</g>
<g transform="translate(14417,0)">
<text font-family="monospace" stroke="none" transform="scale(71.759) matrix(1 0 0 -1 0 0)">量</text>
</g>
<g transform="translate(15565,0)">
<text font-family="monospace" stroke="none" transform="scale(71.759) matrix(1 0 0 -1 0 0)">等</text>
</g>
<g transform="translate(16713,0)">
<text font-family="monospace" stroke="none" transform="scale(71.759) matrix(1 0 0 -1 0 0)">级</text>
</g>
<g transform="translate(17861,0)">
<text font-family="monospace" stroke="none" transform="scale(71.759) matrix(1 0 0 -1 0 0)">，</text>
</g>
<g transform="translate(0,-1723)">
<text font-family="monospace" stroke="none" transform="scale(71.759) matrix(1 0 0 -1 0 0)">分</text>
<g transform="translate(1148,0)">
<text font-family="monospace" stroke="none" transform="scale(71.759) matrix(1 0 0 -1 0 0)">成</text>
</g>
 <use xlink:href="#E1-MJMAIN-30" x="2296" y="0"></use>
 <use xlink:href="#E1-MJMAIN-2212" x="3019" y="0"></use>
<g transform="translate(4019,0)">
 <use xlink:href="#E1-MJMAIN-31"></use>
 <use xlink:href="#E1-MJMAIN-30" x="500" y="0"></use>
 <use xlink:href="#E1-MJMAIN-30" x="1001" y="0"></use>
</g>
<g transform="translate(5521,0)">
<text font-family="monospace" stroke="none" transform="scale(71.759) matrix(1 0 0 -1 0 0)">，</text>
</g>
<g transform="translate(6669,0)">
<text font-family="monospace" stroke="none" transform="scale(71.759) matrix(1 0 0 -1 0 0)">默</text>
</g>
<g transform="translate(7817,0)">
<text font-family="monospace" stroke="none" transform="scale(71.759) matrix(1 0 0 -1 0 0)">认</text>
</g>
<g transform="translate(8965,0)">
<text font-family="monospace" stroke="none" transform="scale(71.759) matrix(1 0 0 -1 0 0)">为</text>
</g>
 <use xlink:href="#E1-MJMAIN-30" x="10113" y="0"></use>
</g>
</g>
<g transform="translate(0,5136)">
<text font-family="monospace" stroke="none" transform="scale(71.759) matrix(1 0 0 -1 0 0)">保</text>
<g transform="translate(1148,0)">
<text font-family="monospace" stroke="none" transform="scale(71.759) matrix(1 0 0 -1 0 0)">存</text>
</g>
<g transform="translate(2296,0)">
<text font-family="monospace" stroke="none" transform="scale(71.759) matrix(1 0 0 -1 0 0)">成</text>
</g>
 <use xlink:href="#E1-MJMATHI-50" x="3444" y="0"></use>
 <use xlink:href="#E1-MJMATHI-4E" x="4195" y="0"></use>
 <use xlink:href="#E1-MJMATHI-47" x="5084" y="0"></use>
<g transform="translate(5870,0)">
<text font-family="monospace" stroke="none" transform="scale(71.759) matrix(1 0 0 -1 0 0)">格</text>
</g>
<g transform="translate(7019,0)">
<text font-family="monospace" stroke="none" transform="scale(71.759) matrix(1 0 0 -1 0 0)">式</text>
</g>
<g transform="translate(8167,0)">
<text font-family="monospace" stroke="none" transform="scale(71.759) matrix(1 0 0 -1 0 0)">文</text>
</g>
<g transform="translate(9315,0)">
<text font-family="monospace" stroke="none" transform="scale(71.759) matrix(1 0 0 -1 0 0)">件</text>
</g>
<g transform="translate(10463,0)">
<text font-family="monospace" stroke="none" transform="scale(71.759) matrix(1 0 0 -1 0 0)">压</text>
</g>
<g transform="translate(11611,0)">
<text font-family="monospace" stroke="none" transform="scale(71.759) matrix(1 0 0 -1 0 0)">缩</text>
</g>
<g transform="translate(12759,0)">
<text font-family="monospace" stroke="none" transform="scale(71.759) matrix(1 0 0 -1 0 0)">级</text>
</g>
<g transform="translate(13907,0)">
<text font-family="monospace" stroke="none" transform="scale(71.759) matrix(1 0 0 -1 0 0)">别</text>
</g>
<g transform="translate(15056,0)">
<text font-family="monospace" stroke="none" transform="scale(71.759) matrix(1 0 0 -1 0 0)">，</text>
</g>
<g transform="translate(16204,0)">
<text font-family="monospace" stroke="none" transform="scale(71.759) matrix(1 0 0 -1 0 0)">从</text>
</g>
 <use xlink:href="#E1-MJMAIN-30" x="17352" y="0"></use>
 <use xlink:href="#E1-MJMAIN-2212" x="18075" y="0"></use>
 <use xlink:href="#E1-MJMAIN-39" x="19075" y="0"></use>
<g transform="translate(19576,0)">
<text font-family="monospace" stroke="none" transform="scale(71.759) matrix(1 0 0 -1 0 0)">，</text>
</g>
<g transform="translate(0,-1723)">
<text font-family="monospace" stroke="none" transform="scale(71.759) matrix(1 0 0 -1 0 0)">只</text>
<g transform="translate(1148,0)">
<text font-family="monospace" stroke="none" transform="scale(71.759) matrix(1 0 0 -1 0 0)">越</text>
</g>
<g transform="translate(2296,0)">
<text font-family="monospace" stroke="none" transform="scale(71.759) matrix(1 0 0 -1 0 0)">高</text>
</g>
<g transform="translate(3444,0)">
<text font-family="monospace" stroke="none" transform="scale(71.759) matrix(1 0 0 -1 0 0)">意</text>
</g>
<g transform="translate(4592,0)">
<text font-family="monospace" stroke="none" transform="scale(71.759) matrix(1 0 0 -1 0 0)">味</text>
</g>
<g transform="translate(5740,0)">
<text font-family="monospace" stroke="none" transform="scale(71.759) matrix(1 0 0 -1 0 0)">着</text>
</g>
<g transform="translate(6888,0)">
<text font-family="monospace" stroke="none" transform="scale(71.759) matrix(1 0 0 -1 0 0)">更</text>
</g>
<g transform="translate(8037,0)">
<text font-family="monospace" stroke="none" transform="scale(71.759) matrix(1 0 0 -1 0 0)">小</text>
</g>
<g transform="translate(9185,0)">
<text font-family="monospace" stroke="none" transform="scale(71.759) matrix(1 0 0 -1 0 0)">尺</text>
</g>
<g transform="translate(10333,0)">
<text font-family="monospace" stroke="none" transform="scale(71.759) matrix(1 0 0 -1 0 0)">寸</text>
</g>
<g transform="translate(11481,0)">
<text font-family="monospace" stroke="none" transform="scale(71.759) matrix(1 0 0 -1 0 0)">和</text>
</g>
<g transform="translate(12629,0)">
<text font-family="monospace" stroke="none" transform="scale(71.759) matrix(1 0 0 -1 0 0)">更</text>
</g>
<g transform="translate(13777,0)">
<text font-family="monospace" stroke="none" transform="scale(71.759) matrix(1 0 0 -1 0 0)">长</text>
</g>
<g transform="translate(14925,0)">
<text font-family="monospace" stroke="none" transform="scale(71.759) matrix(1 0 0 -1 0 0)">的</text>
</g>
<g transform="translate(16074,0)">
<text font-family="monospace" stroke="none" transform="scale(71.759) matrix(1 0 0 -1 0 0)">压</text>
</g>
<g transform="translate(17222,0)">
<text font-family="monospace" stroke="none" transform="scale(71.759) matrix(1 0 0 -1 0 0)">缩</text>
</g>
<g transform="translate(18370,0)">
<text font-family="monospace" stroke="none" transform="scale(71.759) matrix(1 0 0 -1 0 0)">时</text>
</g>
<g transform="translate(19518,0)">
<text font-family="monospace" stroke="none" transform="scale(71.759) matrix(1 0 0 -1 0 0)">间</text>
</g>
<g transform="translate(20666,0)">
<text font-family="monospace" stroke="none" transform="scale(71.759) matrix(1 0 0 -1 0 0)">，</text>
</g>
</g>
<g transform="translate(0,-3445)">
<text font-family="monospace" stroke="none" transform="scale(71.759) matrix(1 0 0 -1 0 0)">默</text>
<g transform="translate(1148,0)">
<text font-family="monospace" stroke="none" transform="scale(71.759) matrix(1 0 0 -1 0 0)">认</text>
</g>
<g transform="translate(2296,0)">
<text font-family="monospace" stroke="none" transform="scale(71.759) matrix(1 0 0 -1 0 0)">值</text>
</g>
<g transform="translate(3444,0)">
<text font-family="monospace" stroke="none" transform="scale(71.759) matrix(1 0 0 -1 0 0)">为</text>
</g>
 <use xlink:href="#E1-MJMAIN-31" x="4592" y="0"></use>
<g transform="translate(5093,0)">
<text font-family="monospace" stroke="none" transform="scale(71.759) matrix(1 0 0 -1 0 0)">（</text>
</g>
<g transform="translate(6241,0)">
<text font-family="monospace" stroke="none" transform="scale(71.759) matrix(1 0 0 -1 0 0)">最</text>
</g>
<g transform="translate(7389,0)">
<text font-family="monospace" stroke="none" transform="scale(71.759) matrix(1 0 0 -1 0 0)">佳</text>
</g>
<g transform="translate(8537,0)">
<text font-family="monospace" stroke="none" transform="scale(71.759) matrix(1 0 0 -1 0 0)">速</text>
</g>
<g transform="translate(9685,0)">
<text font-family="monospace" stroke="none" transform="scale(71.759) matrix(1 0 0 -1 0 0)">度</text>
</g>
<g transform="translate(10833,0)">
<text font-family="monospace" stroke="none" transform="scale(71.759) matrix(1 0 0 -1 0 0)">设</text>
</g>
<g transform="translate(11981,0)">
<text font-family="monospace" stroke="none" transform="scale(71.759) matrix(1 0 0 -1 0 0)">置</text>
</g>
<g transform="translate(13130,0)">
<text font-family="monospace" stroke="none" transform="scale(71.759) matrix(1 0 0 -1 0 0)">）</text>
</g>
</g>
</g>
<g transform="translate(3238,-1)">
<text font-family="monospace" stroke="none" transform="scale(71.759) matrix(1 0 0 -1 0 0)">保</text>
<g transform="translate(1148,0)">
<text font-family="monospace" stroke="none" transform="scale(71.759) matrix(1 0 0 -1 0 0)">存</text>
</g>
<g transform="translate(2296,0)">
<text font-family="monospace" stroke="none" transform="scale(71.759) matrix(1 0 0 -1 0 0)">成</text>
</g>
 <use xlink:href="#E1-MJMATHI-54" x="3444" y="0"></use>
 <use xlink:href="#E1-MJMATHI-49" x="4148" y="0"></use>
 <use xlink:href="#E1-MJMATHI-46" x="4653" y="0"></use>
 <use xlink:href="#E1-MJMATHI-46" x="5402" y="0"></use>
<g transform="translate(6152,0)">
<text font-family="monospace" stroke="none" transform="scale(71.759) matrix(1 0 0 -1 0 0)">格</text>
</g>
<g transform="translate(7300,0)">
<text font-family="monospace" stroke="none" transform="scale(71.759) matrix(1 0 0 -1 0 0)">式</text>
</g>
<g transform="translate(8448,0)">
<text font-family="monospace" stroke="none" transform="scale(71.759) matrix(1 0 0 -1 0 0)">文</text>
</g>
<g transform="translate(9596,0)">
<text font-family="monospace" stroke="none" transform="scale(71.759) matrix(1 0 0 -1 0 0)">件</text>
</g>
<g transform="translate(10745,0)">
<text font-family="monospace" stroke="none" transform="scale(71.759) matrix(1 0 0 -1 0 0)">压</text>
</g>
<g transform="translate(11893,0)">
<text font-family="monospace" stroke="none" transform="scale(71.759) matrix(1 0 0 -1 0 0)">缩</text>
</g>
<g transform="translate(13041,0)">
<text font-family="monospace" stroke="none" transform="scale(71.759) matrix(1 0 0 -1 0 0)">方</text>
</g>
<g transform="translate(14189,0)">
<text font-family="monospace" stroke="none" transform="scale(71.759) matrix(1 0 0 -1 0 0)">案</text>
</g>
</g>
</g>
<line stroke-linecap="square" stroke-width="20.9" y2="10" y1="10" x1="10" x2="46602" transform="translate(0,24952)"></line>
<line stroke-linecap="square" stroke-width="20.9" y2="10" y1="10" x1="10" x2="46602" transform="translate(0,-646)"></line>
<line stroke-linecap="square" stroke-width="20.9" y1="10" x2="10" x1="10" y2="25608" transform="translate(0,-646)"></line>
<line stroke-linecap="square" stroke-width="20.9" y1="10" x2="10" x1="10" y2="25608" transform="translate(46592,-646)"></line>
<line stroke-linecap="square" stroke-width="20.9" y2="10" y1="10" x1="10" x2="46602" transform="translate(0,23256)"></line>
<line stroke-linecap="square" stroke-width="20.9" y2="10" y1="10" x1="10" x2="46602" transform="translate(0,19842)"></line>
<line stroke-linecap="square" stroke-width="20.9" y2="10" y1="10" x1="10" x2="46602" transform="translate(0,16428)"></line>
<line stroke-linecap="square" stroke-width="20.9" y2="10" y1="10" x1="10" x2="46602" transform="translate(0,13014)"></line>
<line stroke-linecap="square" stroke-width="20.9" y2="10" y1="10" x1="10" x2="46602" transform="translate(0,9600)"></line>
<line stroke-linecap="square" stroke-width="20.9" y2="10" y1="10" x1="10" x2="46602" transform="translate(0,6186)"></line>
<line stroke-linecap="square" stroke-width="20.9" y2="10" y1="10" x1="10" x2="46602" transform="translate(0,1050)"></line>
</g>
</g>
</svg>