<svg xmlns:xlink="http://www.w3.org/1999/xlink" width="102.678ex" height="41.176ex" style="font-size: 15px; vertical-align: -3.005ex;" viewBox="0 -16434.8 44208.3 17728.5" role="img" focusable="false" xmlns="http://www.w3.org/2000/svg">
<defs>
<path stroke-width="1" id="E1-MJMATHI-4F" d="M740 435Q740 320 676 213T511 42T304 -22Q207 -22 138 35T51 201Q50 209 50 244Q50 346 98 438T227 601Q351 704 476 704Q514 704 524 703Q621 689 680 617T740 435ZM637 476Q637 565 591 615T476 665Q396 665 322 605Q242 542 200 428T157 216Q157 126 200 73T314 19Q404 19 485 98T608 313Q637 408 637 476Z"></path>
<path stroke-width="1" id="E1-MJMATHI-70" d="M23 287Q24 290 25 295T30 317T40 348T55 381T75 411T101 433T134 442Q209 442 230 378L240 387Q302 442 358 442Q423 442 460 395T497 281Q497 173 421 82T249 -10Q227 -10 210 -4Q199 1 187 11T168 28L161 36Q160 35 139 -51T118 -138Q118 -144 126 -145T163 -148H188Q194 -155 194 -157T191 -175Q188 -187 185 -190T172 -194Q170 -194 161 -194T127 -193T65 -192Q-5 -192 -24 -194H-32Q-39 -187 -39 -183Q-37 -156 -26 -148H-6Q28 -147 33 -136Q36 -130 94 103T155 350Q156 355 156 364Q156 405 131 405Q109 405 94 377T71 316T59 280Q57 278 43 278H29Q23 284 23 287ZM178 102Q200 26 252 26Q282 26 310 49T356 107Q374 141 392 215T411 325V331Q411 405 350 405Q339 405 328 402T306 393T286 380T269 365T254 350T243 336T235 326L232 322Q232 321 229 308T218 264T204 212Q178 106 178 102Z"></path>
<path stroke-width="1" id="E1-MJMATHI-65" d="M39 168Q39 225 58 272T107 350T174 402T244 433T307 442H310Q355 442 388 420T421 355Q421 265 310 237Q261 224 176 223Q139 223 138 221Q138 219 132 186T125 128Q125 81 146 54T209 26T302 45T394 111Q403 121 406 121Q410 121 419 112T429 98T420 82T390 55T344 24T281 -1T205 -11Q126 -11 83 42T39 168ZM373 353Q367 405 305 405Q272 405 244 391T199 357T170 316T154 280T149 261Q149 260 169 260Q282 260 327 284T373 353Z"></path>
<path stroke-width="1" id="E1-MJMATHI-6E" d="M21 287Q22 293 24 303T36 341T56 388T89 425T135 442Q171 442 195 424T225 390T231 369Q231 367 232 367L243 378Q304 442 382 442Q436 442 469 415T503 336T465 179T427 52Q427 26 444 26Q450 26 453 27Q482 32 505 65T540 145Q542 153 560 153Q580 153 580 145Q580 144 576 130Q568 101 554 73T508 17T439 -10Q392 -10 371 17T350 73Q350 92 386 193T423 345Q423 404 379 404H374Q288 404 229 303L222 291L189 157Q156 26 151 16Q138 -11 108 -11Q95 -11 87 -5T76 7T74 17Q74 30 112 180T152 343Q153 348 153 366Q153 405 129 405Q91 405 66 305Q60 285 60 284Q58 278 41 278H27Q21 284 21 287Z"></path>
<path stroke-width="1" id="E1-MJMATHI-43" d="M50 252Q50 367 117 473T286 641T490 704Q580 704 633 653Q642 643 648 636T656 626L657 623Q660 623 684 649Q691 655 699 663T715 679T725 690L740 705H746Q760 705 760 698Q760 694 728 561Q692 422 692 421Q690 416 687 415T669 413H653Q647 419 647 422Q647 423 648 429T650 449T651 481Q651 552 619 605T510 659Q484 659 454 652T382 628T299 572T226 479Q194 422 175 346T156 222Q156 108 232 58Q280 24 350 24Q441 24 512 92T606 240Q610 253 612 255T628 257Q648 257 648 248Q648 243 647 239Q618 132 523 55T319 -22Q206 -22 128 53T50 252Z"></path>
<path stroke-width="1" id="E1-MJMATHI-56" d="M52 648Q52 670 65 683H76Q118 680 181 680Q299 680 320 683H330Q336 677 336 674T334 656Q329 641 325 637H304Q282 635 274 635Q245 630 242 620Q242 618 271 369T301 118L374 235Q447 352 520 471T595 594Q599 601 599 609Q599 633 555 637Q537 637 537 648Q537 649 539 661Q542 675 545 679T558 683Q560 683 570 683T604 682T668 681Q737 681 755 683H762Q769 676 769 672Q769 655 760 640Q757 637 743 637Q730 636 719 635T698 630T682 623T670 615T660 608T652 599T645 592L452 282Q272 -9 266 -16Q263 -18 259 -21L241 -22H234Q216 -22 216 -15Q213 -9 177 305Q139 623 138 626Q133 637 76 637H59Q52 642 52 648Z"></path>
<path stroke-width="1" id="E1-MJMAIN-34" d="M462 0Q444 3 333 3Q217 3 199 0H190V46H221Q241 46 248 46T265 48T279 53T286 61Q287 63 287 115V165H28V211L179 442Q332 674 334 675Q336 677 355 677H373L379 671V211H471V165H379V114Q379 73 379 66T385 54Q393 47 442 46H471V0H462ZM293 211V545L74 212L183 211H293Z"></path>
<path stroke-width="1" id="E1-MJMAIN-2E" d="M78 60Q78 84 95 102T138 120Q162 120 180 104T199 61Q199 36 182 18T139 0T96 17T78 60Z"></path>
<path stroke-width="1" id="E1-MJMAIN-31" d="M213 578L200 573Q186 568 160 563T102 556H83V602H102Q149 604 189 617T245 641T273 663Q275 666 285 666Q294 666 302 660V361L303 61Q310 54 315 52T339 48T401 46H427V0H416Q395 3 257 3Q121 3 100 0H88V46H114Q136 46 152 46T177 47T193 50T201 52T207 57T213 61V578Z"></path>
<path stroke-width="1" id="E1-MJMAIN-30" d="M96 585Q152 666 249 666Q297 666 345 640T423 548Q460 465 460 320Q460 165 417 83Q397 41 362 16T301 -15T250 -22Q224 -22 198 -16T137 16T82 83Q39 165 39 320Q39 494 96 585ZM321 597Q291 629 250 629Q208 629 178 597Q153 571 145 525T137 333Q137 175 145 125T181 46Q209 16 250 16Q290 16 318 46Q347 76 354 130T362 333Q362 478 354 524T321 597Z"></path>
<path stroke-width="1" id="E1-MJMATHI-69" d="M184 600Q184 624 203 642T247 661Q265 661 277 649T290 619Q290 596 270 577T226 557Q211 557 198 567T184 600ZM21 287Q21 295 30 318T54 369T98 420T158 442Q197 442 223 419T250 357Q250 340 236 301T196 196T154 83Q149 61 149 51Q149 26 166 26Q175 26 185 29T208 43T235 78T260 137Q263 149 265 151T282 153Q302 153 302 143Q302 135 293 112T268 61T223 11T161 -11Q129 -11 102 10T74 74Q74 91 79 106T122 220Q160 321 166 341T173 380Q173 404 156 404H154Q124 404 99 371T61 287Q60 286 59 284T58 281T56 279T53 278T49 278T41 278H27Q21 284 21 287Z"></path>
<path stroke-width="1" id="E1-MJMATHI-64" d="M366 683Q367 683 438 688T511 694Q523 694 523 686Q523 679 450 384T375 83T374 68Q374 26 402 26Q411 27 422 35Q443 55 463 131Q469 151 473 152Q475 153 483 153H487H491Q506 153 506 145Q506 140 503 129Q490 79 473 48T445 8T417 -8Q409 -10 393 -10Q359 -10 336 5T306 36L300 51Q299 52 296 50Q294 48 292 46Q233 -10 172 -10Q117 -10 75 30T33 157Q33 205 53 255T101 341Q148 398 195 420T280 442Q336 442 364 400Q369 394 369 396Q370 400 396 505T424 616Q424 629 417 632T378 637H357Q351 643 351 645T353 664Q358 683 366 683ZM352 326Q329 405 277 405Q242 405 210 374T160 293Q131 214 119 129Q119 126 119 118T118 106Q118 61 136 44T179 26Q233 26 290 98L298 109L352 326Z"></path>
<path stroke-width="1" id="E1-MJMATHI-6F" d="M201 -11Q126 -11 80 38T34 156Q34 221 64 279T146 380Q222 441 301 441Q333 441 341 440Q354 437 367 433T402 417T438 387T464 338T476 268Q476 161 390 75T201 -11ZM121 120Q121 70 147 48T206 26Q250 26 289 58T351 142Q360 163 374 216T388 308Q388 352 370 375Q346 405 306 405Q243 405 195 347Q158 303 140 230T121 120Z"></path>
<path stroke-width="1" id="E1-MJMATHI-57" d="M436 683Q450 683 486 682T553 680Q604 680 638 681T677 682Q695 682 695 674Q695 670 692 659Q687 641 683 639T661 637Q636 636 621 632T600 624T597 615Q597 603 613 377T629 138L631 141Q633 144 637 151T649 170T666 200T690 241T720 295T759 362Q863 546 877 572T892 604Q892 619 873 628T831 637Q817 637 817 647Q817 650 819 660Q823 676 825 679T839 682Q842 682 856 682T895 682T949 681Q1015 681 1034 683Q1048 683 1048 672Q1048 666 1045 655T1038 640T1028 637Q1006 637 988 631T958 617T939 600T927 584L923 578L754 282Q586 -14 585 -15Q579 -22 561 -22Q546 -22 542 -17Q539 -14 523 229T506 480L494 462Q472 425 366 239Q222 -13 220 -15T215 -19Q210 -22 197 -22Q178 -22 176 -15Q176 -12 154 304T131 622Q129 631 121 633T82 637H58Q51 644 51 648Q52 671 64 683H76Q118 680 176 680Q301 680 313 683H323Q329 677 329 674T327 656Q322 641 318 637H297Q236 634 232 620Q262 160 266 136L501 550L499 587Q496 629 489 632Q483 636 447 637Q428 637 422 639T416 648Q416 650 418 660Q419 664 420 669T421 676T424 680T428 682T436 683Z"></path>
<path stroke-width="1" id="E1-MJMATHI-72" d="M21 287Q22 290 23 295T28 317T38 348T53 381T73 411T99 433T132 442Q161 442 183 430T214 408T225 388Q227 382 228 382T236 389Q284 441 347 441H350Q398 441 422 400Q430 381 430 363Q430 333 417 315T391 292T366 288Q346 288 334 299T322 328Q322 376 378 392Q356 405 342 405Q286 405 239 331Q229 315 224 298T190 165Q156 25 151 16Q138 -11 108 -11Q95 -11 87 -5T76 7T74 17Q74 30 114 189T154 366Q154 405 128 405Q107 405 92 377T68 316T57 280Q55 278 41 278H27Q21 284 21 287Z"></path>
<path stroke-width="1" id="E1-MJMATHI-74" d="M26 385Q19 392 19 395Q19 399 22 411T27 425Q29 430 36 430T87 431H140L159 511Q162 522 166 540T173 566T179 586T187 603T197 615T211 624T229 626Q247 625 254 615T261 596Q261 589 252 549T232 470L222 433Q222 431 272 431H323Q330 424 330 420Q330 398 317 385H210L174 240Q135 80 135 68Q135 26 162 26Q197 26 230 60T283 144Q285 150 288 151T303 153H307Q322 153 322 145Q322 142 319 133Q314 117 301 95T267 48T216 6T155 -11Q125 -11 98 4T59 56Q57 64 57 83V101L92 241Q127 382 128 383Q128 385 77 385H26Z"></path>
<path stroke-width="1" id="E1-MJMAIN-3A" d="M78 370Q78 394 95 412T138 430Q162 430 180 414T199 371Q199 346 182 328T139 310T96 327T78 370ZM78 60Q78 84 95 102T138 120Q162 120 180 104T199 61Q199 36 182 18T139 0T96 17T78 60Z"></path>
<path stroke-width="1" id="E1-MJMATHI-66" d="M118 -162Q120 -162 124 -164T135 -167T147 -168Q160 -168 171 -155T187 -126Q197 -99 221 27T267 267T289 382V385H242Q195 385 192 387Q188 390 188 397L195 425Q197 430 203 430T250 431Q298 431 298 432Q298 434 307 482T319 540Q356 705 465 705Q502 703 526 683T550 630Q550 594 529 578T487 561Q443 561 443 603Q443 622 454 636T478 657L487 662Q471 668 457 668Q445 668 434 658T419 630Q412 601 403 552T387 469T380 433Q380 431 435 431Q480 431 487 430T498 424Q499 420 496 407T491 391Q489 386 482 386T428 385H372L349 263Q301 15 282 -47Q255 -132 212 -173Q175 -205 139 -205Q107 -205 81 -186T55 -132Q55 -95 76 -78T118 -61Q162 -61 162 -103Q162 -122 151 -136T127 -157L118 -162Z"></path>
<path stroke-width="1" id="E1-MJMATHI-75" d="M21 287Q21 295 30 318T55 370T99 420T158 442Q204 442 227 417T250 358Q250 340 216 246T182 105Q182 62 196 45T238 27T291 44T328 78L339 95Q341 99 377 247Q407 367 413 387T427 416Q444 431 463 431Q480 431 488 421T496 402L420 84Q419 79 419 68Q419 43 426 35T447 26Q469 29 482 57T512 145Q514 153 532 153Q551 153 551 144Q550 139 549 130T540 98T523 55T498 17T462 -8Q454 -10 438 -10Q372 -10 347 46Q345 45 336 36T318 21T296 6T267 -6T233 -11Q189 -11 155 7Q103 38 103 113Q103 170 138 262T173 379Q173 380 173 381Q173 390 173 393T169 400T158 404H154Q131 404 112 385T82 344T65 302T57 280Q55 278 41 278H27Q21 284 21 287Z"></path>
<path stroke-width="1" id="E1-MJMATHI-63" d="M34 159Q34 268 120 355T306 442Q362 442 394 418T427 355Q427 326 408 306T360 285Q341 285 330 295T319 325T330 359T352 380T366 386H367Q367 388 361 392T340 400T306 404Q276 404 249 390Q228 381 206 359Q162 315 142 235T121 119Q121 73 147 50Q169 26 205 26H209Q321 26 394 111Q403 121 406 121Q410 121 419 112T429 98T420 83T391 55T346 25T282 0T202 -11Q127 -11 81 37T34 159Z"></path>
<path stroke-width="1" id="E1-MJMAIN-28" d="M94 250Q94 319 104 381T127 488T164 576T202 643T244 695T277 729T302 750H315H319Q333 750 333 741Q333 738 316 720T275 667T226 581T184 443T167 250T184 58T225 -81T274 -167T316 -220T333 -241Q333 -250 318 -250H315H302L274 -226Q180 -141 137 -14T94 250Z"></path>
<path stroke-width="1" id="E1-MJMAIN-2032" d="M79 43Q73 43 52 49T30 61Q30 68 85 293T146 528Q161 560 198 560Q218 560 240 545T262 501Q262 496 260 486Q259 479 173 263T84 45T79 43Z"></path>
<path stroke-width="1" id="E1-MJMATHI-44" d="M287 628Q287 635 230 637Q207 637 200 638T193 647Q193 655 197 667T204 682Q206 683 403 683Q570 682 590 682T630 676Q702 659 752 597T803 431Q803 275 696 151T444 3L430 1L236 0H125H72Q48 0 41 2T33 11Q33 13 36 25Q40 41 44 43T67 46Q94 46 127 49Q141 52 146 61Q149 65 218 339T287 628ZM703 469Q703 507 692 537T666 584T629 613T590 629T555 636Q553 636 541 636T512 636T479 637H436Q392 637 386 627Q384 623 313 339T242 52Q242 48 253 48T330 47Q335 47 349 47T373 46Q499 46 581 128Q617 164 640 212T683 339T703 469Z"></path>
<path stroke-width="1" id="E1-MJMAIN-2C" d="M78 35T78 60T94 103T137 121Q165 121 187 96T210 8Q210 -27 201 -60T180 -117T154 -158T130 -185T117 -194Q113 -194 104 -185T95 -172Q95 -168 106 -156T131 -126T157 -76T173 -3V9L172 8Q170 7 167 6T161 3T152 1T140 0Q113 0 96 17Z"></path>
<path stroke-width="1" id="E1-MJMATHI-49" d="M43 1Q26 1 26 10Q26 12 29 24Q34 43 39 45Q42 46 54 46H60Q120 46 136 53Q137 53 138 54Q143 56 149 77T198 273Q210 318 216 344Q286 624 286 626Q284 630 284 631Q274 637 213 637H193Q184 643 189 662Q193 677 195 680T209 683H213Q285 681 359 681Q481 681 487 683H497Q504 676 504 672T501 655T494 639Q491 637 471 637Q440 637 407 634Q393 631 388 623Q381 609 337 432Q326 385 315 341Q245 65 245 59Q245 52 255 50T307 46H339Q345 38 345 37T342 19Q338 6 332 0H316Q279 2 179 2Q143 2 113 2T65 2T43 1Z"></path>
<path stroke-width="1" id="E1-MJMATHI-58" d="M42 0H40Q26 0 26 11Q26 15 29 27Q33 41 36 43T55 46Q141 49 190 98Q200 108 306 224T411 342Q302 620 297 625Q288 636 234 637H206Q200 643 200 645T202 664Q206 677 212 683H226Q260 681 347 681Q380 681 408 681T453 682T473 682Q490 682 490 671Q490 670 488 658Q484 643 481 640T465 637Q434 634 411 620L488 426L541 485Q646 598 646 610Q646 628 622 635Q617 635 609 637Q594 637 594 648Q594 650 596 664Q600 677 606 683H618Q619 683 643 683T697 681T738 680Q828 680 837 683H845Q852 676 852 672Q850 647 840 637H824Q790 636 763 628T722 611T698 593L687 584Q687 585 592 480L505 384Q505 383 536 304T601 142T638 56Q648 47 699 46Q734 46 734 37Q734 35 732 23Q728 7 725 4T711 1Q708 1 678 1T589 2Q528 2 496 2T461 1Q444 1 444 10Q444 11 446 25Q448 35 450 39T455 44T464 46T480 47T506 54Q523 62 523 64Q522 64 476 181L429 299Q241 95 236 84Q232 76 232 72Q232 53 261 47Q262 47 267 47T273 46Q276 46 277 46T280 45T283 42T284 35Q284 26 282 19Q279 6 276 4T261 1Q258 1 243 1T201 2T142 2Q64 2 42 0Z"></path>
<path stroke-width="1" id="E1-MJMAIN-29" d="M60 749L64 750Q69 750 74 750H86L114 726Q208 641 251 514T294 250Q294 182 284 119T261 12T224 -76T186 -143T145 -194T113 -227T90 -246Q87 -249 86 -250H74Q66 -250 63 -250T58 -247T55 -238Q56 -237 66 -225Q221 -64 221 250T66 725Q56 737 55 738Q55 746 60 749Z"></path>
<path stroke-width="1" id="E1-MJMAIN-5F" d="M0 -62V-25H499V-62H0Z"></path>
<path stroke-width="1" id="E1-MJMATHI-46" d="M48 1Q31 1 31 11Q31 13 34 25Q38 41 42 43T65 46Q92 46 125 49Q139 52 144 61Q146 66 215 342T285 622Q285 629 281 629Q273 632 228 634H197Q191 640 191 642T193 659Q197 676 203 680H742Q749 676 749 669Q749 664 736 557T722 447Q720 440 702 440H690Q683 445 683 453Q683 454 686 477T689 530Q689 560 682 579T663 610T626 626T575 633T503 634H480Q398 633 393 631Q388 629 386 623Q385 622 352 492L320 363H375Q378 363 398 363T426 364T448 367T472 374T489 386Q502 398 511 419T524 457T529 475Q532 480 548 480H560Q567 475 567 470Q567 467 536 339T502 207Q500 200 482 200H470Q463 206 463 212Q463 215 468 234T473 274Q473 303 453 310T364 317H309L277 190Q245 66 245 60Q245 46 334 46H359Q365 40 365 39T363 19Q359 6 353 0H336Q295 2 185 2Q120 2 86 2T48 1Z"></path>
<path stroke-width="1" id="E1-MJMATHI-55" d="M107 637Q73 637 71 641Q70 643 70 649Q70 673 81 682Q83 683 98 683Q139 681 234 681Q268 681 297 681T342 682T362 682Q378 682 378 672Q378 670 376 658Q371 641 366 638H364Q362 638 359 638T352 638T343 637T334 637Q295 636 284 634T266 623Q265 621 238 518T184 302T154 169Q152 155 152 140Q152 86 183 55T269 24Q336 24 403 69T501 205L552 406Q599 598 599 606Q599 633 535 637Q511 637 511 648Q511 650 513 660Q517 676 519 679T529 683Q532 683 561 682T645 680Q696 680 723 681T752 682Q767 682 767 672Q767 650 759 642Q756 637 737 637Q666 633 648 597Q646 592 598 404Q557 235 548 205Q515 105 433 42T263 -22Q171 -22 116 34T60 167V183Q60 201 115 421Q164 622 164 628Q164 635 107 637Z"></path>
<path stroke-width="1" id="E1-MJMATHI-52" d="M230 637Q203 637 198 638T193 649Q193 676 204 682Q206 683 378 683Q550 682 564 680Q620 672 658 652T712 606T733 563T739 529Q739 484 710 445T643 385T576 351T538 338L545 333Q612 295 612 223Q612 212 607 162T602 80V71Q602 53 603 43T614 25T640 16Q668 16 686 38T712 85Q717 99 720 102T735 105Q755 105 755 93Q755 75 731 36Q693 -21 641 -21H632Q571 -21 531 4T487 82Q487 109 502 166T517 239Q517 290 474 313Q459 320 449 321T378 323H309L277 193Q244 61 244 59Q244 55 245 54T252 50T269 48T302 46H333Q339 38 339 37T336 19Q332 6 326 0H311Q275 2 180 2Q146 2 117 2T71 2T50 1Q33 1 33 10Q33 12 36 24Q41 43 46 45Q50 46 61 46H67Q94 46 127 49Q141 52 146 61Q149 65 218 339T287 628Q287 635 230 637ZM630 554Q630 586 609 608T523 636Q521 636 500 636T462 637H440Q393 637 386 627Q385 624 352 494T319 361Q319 360 388 360Q466 361 492 367Q556 377 592 426Q608 449 619 486T630 554Z"></path>
<path stroke-width="1" id="E1-MJMATHI-4D" d="M289 629Q289 635 232 637Q208 637 201 638T194 648Q194 649 196 659Q197 662 198 666T199 671T201 676T203 679T207 681T212 683T220 683T232 684Q238 684 262 684T307 683Q386 683 398 683T414 678Q415 674 451 396L487 117L510 154Q534 190 574 254T662 394Q837 673 839 675Q840 676 842 678T846 681L852 683H948Q965 683 988 683T1017 684Q1051 684 1051 673Q1051 668 1048 656T1045 643Q1041 637 1008 637Q968 636 957 634T939 623Q936 618 867 340T797 59Q797 55 798 54T805 50T822 48T855 46H886Q892 37 892 35Q892 19 885 5Q880 0 869 0Q864 0 828 1T736 2Q675 2 644 2T609 1Q592 1 592 11Q592 13 594 25Q598 41 602 43T625 46Q652 46 685 49Q699 52 704 61Q706 65 742 207T813 490T848 631L654 322Q458 10 453 5Q451 4 449 3Q444 0 433 0Q418 0 415 7Q413 11 374 317L335 624L267 354Q200 88 200 79Q206 46 272 46H282Q288 41 289 37T286 19Q282 3 278 1Q274 0 267 0Q265 0 255 0T221 1T157 2Q127 2 95 1T58 0Q43 0 39 2T35 11Q35 13 38 25T43 40Q45 46 65 46Q135 46 154 86Q158 92 223 354T289 629Z"></path>
<path stroke-width="1" id="E1-MJMATHI-50" d="M287 628Q287 635 230 637Q206 637 199 638T192 648Q192 649 194 659Q200 679 203 681T397 683Q587 682 600 680Q664 669 707 631T751 530Q751 453 685 389Q616 321 507 303Q500 302 402 301H307L277 182Q247 66 247 59Q247 55 248 54T255 50T272 48T305 46H336Q342 37 342 35Q342 19 335 5Q330 0 319 0Q316 0 282 1T182 2Q120 2 87 2T51 1Q33 1 33 11Q33 13 36 25Q40 41 44 43T67 46Q94 46 127 49Q141 52 146 61Q149 65 218 339T287 628ZM645 554Q645 567 643 575T634 597T609 619T560 635Q553 636 480 637Q463 637 445 637T416 636T404 636Q391 635 386 627Q384 621 367 550T332 412T314 344Q314 342 395 342H407H430Q542 342 590 392Q617 419 631 471T645 554Z"></path>
<path stroke-width="1" id="E1-MJMATHI-45" d="M492 213Q472 213 472 226Q472 230 477 250T482 285Q482 316 461 323T364 330H312Q311 328 277 192T243 52Q243 48 254 48T334 46Q428 46 458 48T518 61Q567 77 599 117T670 248Q680 270 683 272Q690 274 698 274Q718 274 718 261Q613 7 608 2Q605 0 322 0H133Q31 0 31 11Q31 13 34 25Q38 41 42 43T65 46Q92 46 125 49Q139 52 144 61Q146 66 215 342T285 622Q285 629 281 629Q273 632 228 634H197Q191 640 191 642T193 659Q197 676 203 680H757Q764 676 764 669Q764 664 751 557T737 447Q735 440 717 440H705Q698 445 698 453L701 476Q704 500 704 528Q704 558 697 578T678 609T643 625T596 632T532 634H485Q397 633 392 631Q388 629 386 622Q385 619 355 499T324 377Q347 376 372 376H398Q464 376 489 391T534 472Q538 488 540 490T557 493Q562 493 565 493T570 492T572 491T574 487T577 483L544 351Q511 218 508 216Q505 213 492 213Z"></path>
<path stroke-width="1" id="E1-MJMATHI-47" d="M50 252Q50 367 117 473T286 641T490 704Q580 704 633 653Q642 643 648 636T656 626L657 623Q660 623 684 649Q691 655 699 663T715 679T725 690L740 705H746Q760 705 760 698Q760 694 728 561Q692 422 692 421Q690 416 687 415T669 413H653Q647 419 647 422Q647 423 648 429T650 449T651 481Q651 552 619 605T510 659Q492 659 471 656T418 643T357 615T294 567T236 496T189 394T158 260Q156 242 156 221Q156 173 170 136T206 79T256 45T308 28T353 24Q407 24 452 47T514 106Q517 114 529 161T541 214Q541 222 528 224T468 227H431Q425 233 425 235T427 254Q431 267 437 273H454Q494 271 594 271Q634 271 659 271T695 272T707 272Q721 272 721 263Q721 261 719 249Q714 230 709 228Q706 227 694 227Q674 227 653 224Q646 221 643 215T629 164Q620 131 614 108Q589 6 586 3Q584 1 581 1Q571 1 553 21T530 52Q530 53 528 52T522 47Q448 -22 322 -22Q201 -22 126 55T50 252Z"></path>
<path stroke-width="1" id="E1-MJMAIN-2212" d="M84 237T84 250T98 270H679Q694 262 694 250T679 230H98Q84 237 84 250Z"></path>
<path stroke-width="1" id="E1-MJMATHI-4A" d="M447 625Q447 637 354 637H329Q323 642 323 645T325 664Q329 677 335 683H352Q393 681 498 681Q541 681 568 681T605 682T619 682Q633 682 633 672Q633 670 630 658Q626 642 623 640T604 637Q552 637 545 623Q541 610 483 376Q420 128 419 127Q397 64 333 21T195 -22Q137 -22 97 8T57 88Q57 130 80 152T132 174Q177 174 182 130Q182 98 164 80T123 56Q115 54 115 53T122 44Q148 15 197 15Q235 15 271 47T324 130Q328 142 387 380T447 625Z"></path>
<path stroke-width="1" id="E1-MJMAIN-32" d="M109 429Q82 429 66 447T50 491Q50 562 103 614T235 666Q326 666 387 610T449 465Q449 422 429 383T381 315T301 241Q265 210 201 149L142 93L218 92Q375 92 385 97Q392 99 409 186V189H449V186Q448 183 436 95T421 3V0H50V19V31Q50 38 56 46T86 81Q115 113 136 137Q145 147 170 174T204 211T233 244T261 278T284 308T305 340T320 369T333 401T340 431T343 464Q343 527 309 573T212 619Q179 619 154 602T119 569T109 550Q109 549 114 549Q132 549 151 535T170 489Q170 464 154 447T109 429Z"></path>
<path stroke-width="1" id="E1-MJMAIN-33" d="M127 463Q100 463 85 480T69 524Q69 579 117 622T233 665Q268 665 277 664Q351 652 390 611T430 522Q430 470 396 421T302 350L299 348Q299 347 308 345T337 336T375 315Q457 262 457 175Q457 96 395 37T238 -22Q158 -22 100 21T42 130Q42 158 60 175T105 193Q133 193 151 175T169 130Q169 119 166 110T159 94T148 82T136 74T126 70T118 67L114 66Q165 21 238 21Q293 21 321 74Q338 107 338 175V195Q338 290 274 322Q259 328 213 329L171 330L168 332Q166 335 166 348Q166 366 174 366Q202 366 232 371Q266 376 294 413T322 525V533Q322 590 287 612Q265 626 240 626Q208 626 181 615T143 592T132 580H135Q138 579 143 578T153 573T165 566T175 555T183 540T186 520Q186 498 172 481T127 463Z"></path>
<path stroke-width="1" id="E1-MJMAIN-36" d="M42 313Q42 476 123 571T303 666Q372 666 402 630T432 550Q432 525 418 510T379 495Q356 495 341 509T326 548Q326 592 373 601Q351 623 311 626Q240 626 194 566Q147 500 147 364L148 360Q153 366 156 373Q197 433 263 433H267Q313 433 348 414Q372 400 396 374T435 317Q456 268 456 210V192Q456 169 451 149Q440 90 387 34T253 -22Q225 -22 199 -14T143 16T92 75T56 172T42 313ZM257 397Q227 397 205 380T171 335T154 278T148 216Q148 133 160 97T198 39Q222 21 251 21Q302 21 329 59Q342 77 347 104T352 209Q352 289 347 316T329 361Q302 397 257 397Z"></path>
<path stroke-width="1" id="E1-MJMATHI-48" d="M228 637Q194 637 192 641Q191 643 191 649Q191 673 202 682Q204 683 219 683Q260 681 355 681Q389 681 418 681T463 682T483 682Q499 682 499 672Q499 670 497 658Q492 641 487 638H485Q483 638 480 638T473 638T464 637T455 637Q416 636 405 634T387 623Q384 619 355 500Q348 474 340 442T328 395L324 380Q324 378 469 378H614L615 381Q615 384 646 504Q674 619 674 627T617 637Q594 637 587 639T580 648Q580 650 582 660Q586 677 588 679T604 682Q609 682 646 681T740 680Q802 680 835 681T871 682Q888 682 888 672Q888 645 876 638H874Q872 638 869 638T862 638T853 637T844 637Q805 636 794 634T776 623Q773 618 704 340T634 58Q634 51 638 51Q646 48 692 46H723Q729 38 729 37T726 19Q722 6 716 0H701Q664 2 567 2Q533 2 504 2T458 2T437 1Q420 1 420 10Q420 15 423 24Q428 43 433 45Q437 46 448 46H454Q481 46 514 49Q520 50 522 50T528 55T534 64T540 82T547 110T558 153Q565 181 569 198Q602 330 602 331T457 332H312L279 197Q245 63 245 58Q245 51 253 49T303 46H334Q340 38 340 37T337 19Q333 6 327 0H312Q275 2 178 2Q144 2 115 2T69 2T48 1Q31 1 31 10Q31 12 34 24Q39 43 44 45Q48 46 59 46H65Q92 46 125 49Q139 52 144 61Q147 65 216 339T285 628Q285 635 228 637Z"></path>
<path stroke-width="1" id="E1-MJMATHI-4C" d="M228 637Q194 637 192 641Q191 643 191 649Q191 673 202 682Q204 683 217 683Q271 680 344 680Q485 680 506 683H518Q524 677 524 674T522 656Q517 641 513 637H475Q406 636 394 628Q387 624 380 600T313 336Q297 271 279 198T252 88L243 52Q243 48 252 48T311 46H328Q360 46 379 47T428 54T478 72T522 106T564 161Q580 191 594 228T611 270Q616 273 628 273H641Q647 264 647 262T627 203T583 83T557 9Q555 4 553 3T537 0T494 -1Q483 -1 418 -1T294 0H116Q32 0 32 10Q32 17 34 24Q39 43 44 45Q48 46 59 46H65Q92 46 125 49Q139 52 144 61Q147 65 216 339T285 628Q285 635 228 637Z"></path>
</defs>
<g stroke="currentColor" fill="currentColor" stroke-width="0" transform="matrix(1 0 0 -1 0 0)">
<g transform="translate(167,0)">
<g transform="translate(389,0)">
<g transform="translate(3897,15255)">
 <use xlink:href="#E1-MJMATHI-4F" x="0" y="0"></use>
 <use xlink:href="#E1-MJMATHI-70" x="763" y="0"></use>
 <use xlink:href="#E1-MJMATHI-65" x="1267" y="0"></use>
 <use xlink:href="#E1-MJMATHI-6E" x="1733" y="0"></use>
 <use xlink:href="#E1-MJMATHI-43" x="2334" y="0"></use>
 <use xlink:href="#E1-MJMATHI-56" x="3094" y="0"></use>
<g transform="translate(3864,0)">
 <use xlink:href="#E1-MJMAIN-34"></use>
 <use xlink:href="#E1-MJMAIN-2E" x="500" y="0"></use>
 <use xlink:href="#E1-MJMAIN-31" x="779" y="0"></use>
</g>
<g transform="translate(5143,0)">
<text font-family="monospace" stroke="none" transform="scale(71.759) matrix(1 0 0 -1 0 0)">版</text>
</g>
<g transform="translate(6291,0)">
<text font-family="monospace" stroke="none" transform="scale(71.759) matrix(1 0 0 -1 0 0)">本</text>
</g>
<g transform="translate(7439,0)">
<text font-family="monospace" stroke="none" transform="scale(71.759) matrix(1 0 0 -1 0 0)">标</text>
</g>
<g transform="translate(8587,0)">
<text font-family="monospace" stroke="none" transform="scale(71.759) matrix(1 0 0 -1 0 0)">志</text>
</g>
</g>
<g transform="translate(133,13563)">
 <use xlink:href="#E1-MJMATHI-56" x="0" y="0"></use>
 <use xlink:href="#E1-MJMATHI-69" x="769" y="0"></use>
 <use xlink:href="#E1-MJMATHI-64" x="1115" y="0"></use>
 <use xlink:href="#E1-MJMATHI-65" x="1638" y="0"></use>
 <use xlink:href="#E1-MJMATHI-6F" x="2105" y="0"></use>
 <use xlink:href="#E1-MJMATHI-57" x="2590" y="0"></use>
 <use xlink:href="#E1-MJMATHI-72" x="3639" y="0"></use>
 <use xlink:href="#E1-MJMATHI-69" x="4090" y="0"></use>
 <use xlink:href="#E1-MJMATHI-74" x="4436" y="0"></use>
 <use xlink:href="#E1-MJMATHI-65" x="4797" y="0"></use>
 <use xlink:href="#E1-MJMATHI-72" x="5264" y="0"></use>
<g transform="translate(5993,0)">
 <use xlink:href="#E1-MJMAIN-3A"></use>
 <use xlink:href="#E1-MJMAIN-3A" x="278" y="0"></use>
</g>
 <use xlink:href="#E1-MJMATHI-66" x="6828" y="0"></use>
 <use xlink:href="#E1-MJMATHI-6F" x="7378" y="0"></use>
 <use xlink:href="#E1-MJMATHI-75" x="7864" y="0"></use>
 <use xlink:href="#E1-MJMATHI-72" x="8436" y="0"></use>
 <use xlink:href="#E1-MJMATHI-63" x="8888" y="0"></use>
 <use xlink:href="#E1-MJMATHI-63" x="9321" y="0"></use>
<g transform="translate(9755,0)">
 <use xlink:href="#E1-MJMAIN-28" x="0" y="0"></use>
 <use transform="scale(0.707)" xlink:href="#E1-MJMAIN-2032" x="550" y="513"></use>
</g>
<g transform="translate(10439,0)">
 <use xlink:href="#E1-MJMATHI-44" x="0" y="0"></use>
 <use transform="scale(0.707)" xlink:href="#E1-MJMAIN-2032" x="1171" y="513"></use>
</g>
<g transform="translate(11562,0)">
 <use xlink:href="#E1-MJMAIN-2C" x="0" y="0"></use>
 <use transform="scale(0.707)" xlink:href="#E1-MJMAIN-2032" x="393" y="513"></use>
</g>
<g transform="translate(12302,0)">
 <use xlink:href="#E1-MJMATHI-49" x="0" y="0"></use>
 <use transform="scale(0.707)" xlink:href="#E1-MJMAIN-2032" x="740" y="513"></use>
</g>
<g transform="translate(13121,0)">
 <use xlink:href="#E1-MJMAIN-2C" x="0" y="0"></use>
 <use transform="scale(0.707)" xlink:href="#E1-MJMAIN-2032" x="393" y="513"></use>
</g>
<g transform="translate(13861,0)">
 <use xlink:href="#E1-MJMATHI-56" x="0" y="0"></use>
 <use transform="scale(0.707)" xlink:href="#E1-MJMAIN-2032" x="1167" y="513"></use>
</g>
<g transform="translate(14981,0)">
 <use xlink:href="#E1-MJMAIN-2C" x="0" y="0"></use>
 <use transform="scale(0.707)" xlink:href="#E1-MJMAIN-2032" x="393" y="513"></use>
</g>
<g transform="translate(15721,0)">
 <use xlink:href="#E1-MJMATHI-58" x="0" y="0"></use>
 <use transform="scale(0.707)" xlink:href="#E1-MJMAIN-2032" x="1215" y="513"></use>
</g>
 <use xlink:href="#E1-MJMAIN-29" x="16875" y="0"></use>
</g>
<g transform="translate(209,11872)">
 <use xlink:href="#E1-MJMATHI-56" x="0" y="0"></use>
 <use xlink:href="#E1-MJMATHI-69" x="769" y="0"></use>
 <use xlink:href="#E1-MJMATHI-64" x="1115" y="0"></use>
 <use xlink:href="#E1-MJMATHI-65" x="1638" y="0"></use>
 <use xlink:href="#E1-MJMATHI-6F" x="2105" y="0"></use>
 <use xlink:href="#E1-MJMATHI-57" x="2590" y="0"></use>
 <use xlink:href="#E1-MJMATHI-72" x="3639" y="0"></use>
 <use xlink:href="#E1-MJMATHI-69" x="4090" y="0"></use>
 <use xlink:href="#E1-MJMATHI-74" x="4436" y="0"></use>
 <use xlink:href="#E1-MJMATHI-65" x="4797" y="0"></use>
 <use xlink:href="#E1-MJMATHI-72" x="5264" y="0"></use>
<g transform="translate(5993,0)">
 <use xlink:href="#E1-MJMAIN-3A"></use>
 <use xlink:href="#E1-MJMAIN-3A" x="278" y="0"></use>
</g>
 <use xlink:href="#E1-MJMATHI-66" x="6828" y="0"></use>
 <use xlink:href="#E1-MJMATHI-6F" x="7378" y="0"></use>
 <use xlink:href="#E1-MJMATHI-75" x="7864" y="0"></use>
 <use xlink:href="#E1-MJMATHI-72" x="8436" y="0"></use>
 <use xlink:href="#E1-MJMATHI-63" x="8888" y="0"></use>
 <use xlink:href="#E1-MJMATHI-63" x="9321" y="0"></use>
<g transform="translate(9755,0)">
 <use xlink:href="#E1-MJMAIN-28" x="0" y="0"></use>
 <use transform="scale(0.707)" xlink:href="#E1-MJMAIN-2032" x="550" y="513"></use>
</g>
<g transform="translate(10439,0)">
 <use xlink:href="#E1-MJMATHI-50" x="0" y="0"></use>
 <use transform="scale(0.707)" xlink:href="#E1-MJMAIN-2032" x="1109" y="513"></use>
</g>
<g transform="translate(11518,0)">
 <use xlink:href="#E1-MJMAIN-2C" x="0" y="0"></use>
 <use transform="scale(0.707)" xlink:href="#E1-MJMAIN-2032" x="393" y="513"></use>
</g>
<g transform="translate(12258,0)">
 <use xlink:href="#E1-MJMATHI-49" x="0" y="0"></use>
 <use transform="scale(0.707)" xlink:href="#E1-MJMAIN-2032" x="740" y="513"></use>
</g>
<g transform="translate(13076,0)">
 <use xlink:href="#E1-MJMAIN-2C" x="0" y="0"></use>
 <use transform="scale(0.707)" xlink:href="#E1-MJMAIN-2032" x="393" y="513"></use>
</g>
<g transform="translate(13816,0)">
 <use xlink:href="#E1-MJMATHI-4D" x="0" y="0"></use>
 <use transform="scale(0.707)" xlink:href="#E1-MJMAIN-2032" x="1521" y="513"></use>
</g>
<g transform="translate(15187,0)">
 <use xlink:href="#E1-MJMAIN-2C" x="0" y="0"></use>
 <use transform="scale(0.707)" xlink:href="#E1-MJMAIN-2032" x="393" y="513"></use>
</g>
<g transform="translate(15927,0)">
 <use xlink:href="#E1-MJMAIN-31" x="0" y="0"></use>
 <use transform="scale(0.707)" xlink:href="#E1-MJMAIN-2032" x="707" y="557"></use>
</g>
 <use xlink:href="#E1-MJMAIN-29" x="16722" y="0"></use>
</g>
<g transform="translate(0,10180)">
 <use xlink:href="#E1-MJMATHI-56" x="0" y="0"></use>
 <use xlink:href="#E1-MJMATHI-69" x="769" y="0"></use>
 <use xlink:href="#E1-MJMATHI-64" x="1115" y="0"></use>
 <use xlink:href="#E1-MJMATHI-65" x="1638" y="0"></use>
 <use xlink:href="#E1-MJMATHI-6F" x="2105" y="0"></use>
 <use xlink:href="#E1-MJMATHI-57" x="2590" y="0"></use>
 <use xlink:href="#E1-MJMATHI-72" x="3639" y="0"></use>
 <use xlink:href="#E1-MJMATHI-69" x="4090" y="0"></use>
 <use xlink:href="#E1-MJMATHI-74" x="4436" y="0"></use>
 <use xlink:href="#E1-MJMATHI-65" x="4797" y="0"></use>
 <use xlink:href="#E1-MJMATHI-72" x="5264" y="0"></use>
<g transform="translate(5993,0)">
 <use xlink:href="#E1-MJMAIN-3A"></use>
 <use xlink:href="#E1-MJMAIN-3A" x="278" y="0"></use>
</g>
 <use xlink:href="#E1-MJMATHI-66" x="6828" y="0"></use>
 <use xlink:href="#E1-MJMATHI-6F" x="7378" y="0"></use>
 <use xlink:href="#E1-MJMATHI-75" x="7864" y="0"></use>
 <use xlink:href="#E1-MJMATHI-72" x="8436" y="0"></use>
 <use xlink:href="#E1-MJMATHI-63" x="8888" y="0"></use>
 <use xlink:href="#E1-MJMATHI-63" x="9321" y="0"></use>
<g transform="translate(9755,0)">
 <use xlink:href="#E1-MJMAIN-28" x="0" y="0"></use>
 <use transform="scale(0.707)" xlink:href="#E1-MJMAIN-2032" x="550" y="513"></use>
</g>
<g transform="translate(10439,0)">
 <use xlink:href="#E1-MJMATHI-4D" x="0" y="0"></use>
 <use transform="scale(0.707)" xlink:href="#E1-MJMAIN-2032" x="1521" y="513"></use>
</g>
<g transform="translate(11810,0)">
 <use xlink:href="#E1-MJMAIN-2C" x="0" y="0"></use>
 <use transform="scale(0.707)" xlink:href="#E1-MJMAIN-2032" x="393" y="513"></use>
</g>
<g transform="translate(12549,0)">
 <use xlink:href="#E1-MJMATHI-4A" x="0" y="0"></use>
 <use transform="scale(0.707)" xlink:href="#E1-MJMAIN-2032" x="929" y="513"></use>
</g>
<g transform="translate(13501,0)">
 <use xlink:href="#E1-MJMAIN-2C" x="0" y="0"></use>
 <use transform="scale(0.707)" xlink:href="#E1-MJMAIN-2032" x="393" y="513"></use>
</g>
<g transform="translate(14241,0)">
 <use xlink:href="#E1-MJMATHI-50" x="0" y="0"></use>
 <use transform="scale(0.707)" xlink:href="#E1-MJMAIN-2032" x="1109" y="513"></use>
</g>
<g transform="translate(15320,0)">
 <use xlink:href="#E1-MJMAIN-2C" x="0" y="0"></use>
 <use transform="scale(0.707)" xlink:href="#E1-MJMAIN-2032" x="393" y="513"></use>
</g>
<g transform="translate(16060,0)">
 <use xlink:href="#E1-MJMATHI-47" x="0" y="0"></use>
 <use transform="scale(0.707)" xlink:href="#E1-MJMAIN-2032" x="1112" y="513"></use>
</g>
 <use xlink:href="#E1-MJMAIN-29" x="17142" y="0"></use>
</g>
<g transform="translate(221,6766)">
 <use xlink:href="#E1-MJMATHI-56" x="0" y="0"></use>
 <use xlink:href="#E1-MJMATHI-69" x="769" y="0"></use>
 <use xlink:href="#E1-MJMATHI-64" x="1115" y="0"></use>
 <use xlink:href="#E1-MJMATHI-65" x="1638" y="0"></use>
 <use xlink:href="#E1-MJMATHI-6F" x="2105" y="0"></use>
 <use xlink:href="#E1-MJMATHI-57" x="2590" y="0"></use>
 <use xlink:href="#E1-MJMATHI-72" x="3639" y="0"></use>
 <use xlink:href="#E1-MJMATHI-69" x="4090" y="0"></use>
 <use xlink:href="#E1-MJMATHI-74" x="4436" y="0"></use>
 <use xlink:href="#E1-MJMATHI-65" x="4797" y="0"></use>
 <use xlink:href="#E1-MJMATHI-72" x="5264" y="0"></use>
<g transform="translate(5993,0)">
 <use xlink:href="#E1-MJMAIN-3A"></use>
 <use xlink:href="#E1-MJMAIN-3A" x="278" y="0"></use>
</g>
 <use xlink:href="#E1-MJMATHI-66" x="6828" y="0"></use>
 <use xlink:href="#E1-MJMATHI-6F" x="7378" y="0"></use>
 <use xlink:href="#E1-MJMATHI-75" x="7864" y="0"></use>
 <use xlink:href="#E1-MJMATHI-72" x="8436" y="0"></use>
 <use xlink:href="#E1-MJMATHI-63" x="8888" y="0"></use>
 <use xlink:href="#E1-MJMATHI-63" x="9321" y="0"></use>
<g transform="translate(9755,0)">
 <use xlink:href="#E1-MJMAIN-28" x="0" y="0"></use>
 <use transform="scale(0.707)" xlink:href="#E1-MJMAIN-2032" x="550" y="513"></use>
</g>
<g transform="translate(10439,0)">
 <use xlink:href="#E1-MJMATHI-4D" x="0" y="0"></use>
 <use transform="scale(0.707)" xlink:href="#E1-MJMAIN-2032" x="1521" y="513"></use>
</g>
<g transform="translate(11810,0)">
 <use xlink:href="#E1-MJMAIN-2C" x="0" y="0"></use>
 <use transform="scale(0.707)" xlink:href="#E1-MJMAIN-2032" x="393" y="513"></use>
</g>
<g transform="translate(12549,0)">
 <use xlink:href="#E1-MJMATHI-50" x="0" y="0"></use>
 <use transform="scale(0.707)" xlink:href="#E1-MJMAIN-2032" x="1109" y="513"></use>
</g>
<g transform="translate(13629,0)">
 <use xlink:href="#E1-MJMAIN-2C" x="0" y="0"></use>
 <use transform="scale(0.707)" xlink:href="#E1-MJMAIN-2032" x="393" y="513"></use>
</g>
<g transform="translate(14369,0)">
 <use xlink:href="#E1-MJMAIN-34" x="0" y="0"></use>
 <use transform="scale(0.707)" xlink:href="#E1-MJMAIN-2032" x="707" y="572"></use>
</g>
<g transform="translate(15164,0)">
 <use xlink:href="#E1-MJMAIN-2C" x="0" y="0"></use>
 <use transform="scale(0.707)" xlink:href="#E1-MJMAIN-2032" x="393" y="513"></use>
</g>
<g transform="translate(15904,0)">
 <use xlink:href="#E1-MJMAIN-32" x="0" y="0"></use>
 <use transform="scale(0.707)" xlink:href="#E1-MJMAIN-2032" x="707" y="557"></use>
</g>
 <use xlink:href="#E1-MJMAIN-29" x="16699" y="0"></use>
</g>
<g transform="translate(312,5074)">
 <use xlink:href="#E1-MJMATHI-56" x="0" y="0"></use>
 <use xlink:href="#E1-MJMATHI-69" x="769" y="0"></use>
 <use xlink:href="#E1-MJMATHI-64" x="1115" y="0"></use>
 <use xlink:href="#E1-MJMATHI-65" x="1638" y="0"></use>
 <use xlink:href="#E1-MJMATHI-6F" x="2105" y="0"></use>
 <use xlink:href="#E1-MJMATHI-57" x="2590" y="0"></use>
 <use xlink:href="#E1-MJMATHI-72" x="3639" y="0"></use>
 <use xlink:href="#E1-MJMATHI-69" x="4090" y="0"></use>
 <use xlink:href="#E1-MJMATHI-74" x="4436" y="0"></use>
 <use xlink:href="#E1-MJMATHI-65" x="4797" y="0"></use>
 <use xlink:href="#E1-MJMATHI-72" x="5264" y="0"></use>
<g transform="translate(5993,0)">
 <use xlink:href="#E1-MJMAIN-3A"></use>
 <use xlink:href="#E1-MJMAIN-3A" x="278" y="0"></use>
</g>
 <use xlink:href="#E1-MJMATHI-66" x="6828" y="0"></use>
 <use xlink:href="#E1-MJMATHI-6F" x="7378" y="0"></use>
 <use xlink:href="#E1-MJMATHI-75" x="7864" y="0"></use>
 <use xlink:href="#E1-MJMATHI-72" x="8436" y="0"></use>
 <use xlink:href="#E1-MJMATHI-63" x="8888" y="0"></use>
 <use xlink:href="#E1-MJMATHI-63" x="9321" y="0"></use>
<g transform="translate(9755,0)">
 <use xlink:href="#E1-MJMAIN-28" x="0" y="0"></use>
 <use transform="scale(0.707)" xlink:href="#E1-MJMAIN-2032" x="550" y="513"></use>
</g>
<g transform="translate(10439,0)">
 <use xlink:href="#E1-MJMATHI-44" x="0" y="0"></use>
 <use transform="scale(0.707)" xlink:href="#E1-MJMAIN-2032" x="1171" y="513"></use>
</g>
<g transform="translate(11562,0)">
 <use xlink:href="#E1-MJMAIN-2C" x="0" y="0"></use>
 <use transform="scale(0.707)" xlink:href="#E1-MJMAIN-2032" x="393" y="513"></use>
</g>
<g transform="translate(12302,0)">
 <use xlink:href="#E1-MJMATHI-49" x="0" y="0"></use>
 <use transform="scale(0.707)" xlink:href="#E1-MJMAIN-2032" x="740" y="513"></use>
</g>
<g transform="translate(13121,0)">
 <use xlink:href="#E1-MJMAIN-2C" x="0" y="0"></use>
 <use transform="scale(0.707)" xlink:href="#E1-MJMAIN-2032" x="393" y="513"></use>
</g>
<g transform="translate(13861,0)">
 <use xlink:href="#E1-MJMATHI-56" x="0" y="0"></use>
 <use transform="scale(0.707)" xlink:href="#E1-MJMAIN-2032" x="1167" y="513"></use>
</g>
<g transform="translate(14981,0)">
 <use xlink:href="#E1-MJMAIN-2C" x="0" y="0"></use>
 <use transform="scale(0.707)" xlink:href="#E1-MJMAIN-2032" x="393" y="513"></use>
</g>
<g transform="translate(15721,0)">
 <use xlink:href="#E1-MJMAIN-33" x="0" y="0"></use>
 <use transform="scale(0.707)" xlink:href="#E1-MJMAIN-2032" x="707" y="555"></use>
</g>
 <use xlink:href="#E1-MJMAIN-29" x="16516" y="0"></use>
</g>
<g transform="translate(504,3383)">
 <use xlink:href="#E1-MJMATHI-56" x="0" y="0"></use>
 <use xlink:href="#E1-MJMATHI-69" x="769" y="0"></use>
 <use xlink:href="#E1-MJMATHI-64" x="1115" y="0"></use>
 <use xlink:href="#E1-MJMATHI-65" x="1638" y="0"></use>
 <use xlink:href="#E1-MJMATHI-6F" x="2105" y="0"></use>
 <use xlink:href="#E1-MJMATHI-57" x="2590" y="0"></use>
 <use xlink:href="#E1-MJMATHI-72" x="3639" y="0"></use>
 <use xlink:href="#E1-MJMATHI-69" x="4090" y="0"></use>
 <use xlink:href="#E1-MJMATHI-74" x="4436" y="0"></use>
 <use xlink:href="#E1-MJMATHI-65" x="4797" y="0"></use>
 <use xlink:href="#E1-MJMATHI-72" x="5264" y="0"></use>
<g transform="translate(5993,0)">
 <use xlink:href="#E1-MJMAIN-3A"></use>
 <use xlink:href="#E1-MJMAIN-3A" x="278" y="0"></use>
</g>
 <use xlink:href="#E1-MJMATHI-66" x="6828" y="0"></use>
 <use xlink:href="#E1-MJMATHI-6F" x="7378" y="0"></use>
 <use xlink:href="#E1-MJMATHI-75" x="7864" y="0"></use>
 <use xlink:href="#E1-MJMATHI-72" x="8436" y="0"></use>
 <use xlink:href="#E1-MJMATHI-63" x="8888" y="0"></use>
 <use xlink:href="#E1-MJMATHI-63" x="9321" y="0"></use>
<g transform="translate(9755,0)">
 <use xlink:href="#E1-MJMAIN-28" x="0" y="0"></use>
 <use transform="scale(0.707)" xlink:href="#E1-MJMAIN-2032" x="550" y="513"></use>
</g>
<g transform="translate(10439,0)">
 <use xlink:href="#E1-MJMATHI-55" x="0" y="0"></use>
 <use transform="scale(0.707)" xlink:href="#E1-MJMAIN-2032" x="1121" y="513"></use>
</g>
<g transform="translate(11526,0)">
 <use xlink:href="#E1-MJMAIN-2C" x="0" y="0"></use>
 <use transform="scale(0.707)" xlink:href="#E1-MJMAIN-2032" x="393" y="513"></use>
</g>
<g transform="translate(12266,0)">
 <use xlink:href="#E1-MJMAIN-32" x="0" y="0"></use>
 <use transform="scale(0.707)" xlink:href="#E1-MJMAIN-2032" x="707" y="557"></use>
</g>
<g transform="translate(13062,0)">
 <use xlink:href="#E1-MJMAIN-2C" x="0" y="0"></use>
 <use transform="scale(0.707)" xlink:href="#E1-MJMAIN-2032" x="393" y="513"></use>
</g>
<g transform="translate(13802,0)">
 <use xlink:href="#E1-MJMAIN-36" x="0" y="0"></use>
 <use transform="scale(0.707)" xlink:href="#E1-MJMAIN-2032" x="707" y="557"></use>
</g>
<g transform="translate(14597,0)">
 <use xlink:href="#E1-MJMAIN-2C" x="0" y="0"></use>
 <use transform="scale(0.707)" xlink:href="#E1-MJMAIN-2032" x="393" y="513"></use>
</g>
<g transform="translate(15337,0)">
 <use xlink:href="#E1-MJMAIN-33" x="0" y="0"></use>
 <use transform="scale(0.707)" xlink:href="#E1-MJMAIN-2032" x="707" y="555"></use>
</g>
 <use xlink:href="#E1-MJMAIN-29" x="16132" y="0"></use>
</g>
<g transform="translate(639,1691)">
 <use xlink:href="#E1-MJMATHI-56" x="0" y="0"></use>
 <use xlink:href="#E1-MJMATHI-69" x="769" y="0"></use>
 <use xlink:href="#E1-MJMATHI-64" x="1115" y="0"></use>
 <use xlink:href="#E1-MJMATHI-65" x="1638" y="0"></use>
 <use xlink:href="#E1-MJMATHI-6F" x="2105" y="0"></use>
 <use xlink:href="#E1-MJMATHI-57" x="2590" y="0"></use>
 <use xlink:href="#E1-MJMATHI-72" x="3639" y="0"></use>
 <use xlink:href="#E1-MJMATHI-69" x="4090" y="0"></use>
 <use xlink:href="#E1-MJMATHI-74" x="4436" y="0"></use>
 <use xlink:href="#E1-MJMATHI-65" x="4797" y="0"></use>
 <use xlink:href="#E1-MJMATHI-72" x="5264" y="0"></use>
<g transform="translate(5993,0)">
 <use xlink:href="#E1-MJMAIN-3A"></use>
 <use xlink:href="#E1-MJMAIN-3A" x="278" y="0"></use>
</g>
 <use xlink:href="#E1-MJMATHI-66" x="6828" y="0"></use>
 <use xlink:href="#E1-MJMATHI-6F" x="7378" y="0"></use>
 <use xlink:href="#E1-MJMATHI-75" x="7864" y="0"></use>
 <use xlink:href="#E1-MJMATHI-72" x="8436" y="0"></use>
 <use xlink:href="#E1-MJMATHI-63" x="8888" y="0"></use>
 <use xlink:href="#E1-MJMATHI-63" x="9321" y="0"></use>
<g transform="translate(9755,0)">
 <use xlink:href="#E1-MJMAIN-28" x="0" y="0"></use>
 <use transform="scale(0.707)" xlink:href="#E1-MJMAIN-2032" x="550" y="513"></use>
</g>
<g transform="translate(10439,0)">
 <use xlink:href="#E1-MJMATHI-49" x="0" y="0"></use>
 <use transform="scale(0.707)" xlink:href="#E1-MJMAIN-2032" x="740" y="513"></use>
</g>
<g transform="translate(11257,0)">
 <use xlink:href="#E1-MJMAIN-2C" x="0" y="0"></use>
 <use transform="scale(0.707)" xlink:href="#E1-MJMAIN-2032" x="393" y="513"></use>
</g>
<g transform="translate(11997,0)">
 <use xlink:href="#E1-MJMAIN-32" x="0" y="0"></use>
 <use transform="scale(0.707)" xlink:href="#E1-MJMAIN-2032" x="707" y="557"></use>
</g>
<g transform="translate(12793,0)">
 <use xlink:href="#E1-MJMAIN-2C" x="0" y="0"></use>
 <use transform="scale(0.707)" xlink:href="#E1-MJMAIN-2032" x="393" y="513"></use>
</g>
<g transform="translate(13533,0)">
 <use xlink:href="#E1-MJMAIN-36" x="0" y="0"></use>
 <use transform="scale(0.707)" xlink:href="#E1-MJMAIN-2032" x="707" y="557"></use>
</g>
<g transform="translate(14328,0)">
 <use xlink:href="#E1-MJMAIN-2C" x="0" y="0"></use>
 <use transform="scale(0.707)" xlink:href="#E1-MJMAIN-2032" x="393" y="513"></use>
</g>
<g transform="translate(15068,0)">
 <use xlink:href="#E1-MJMAIN-33" x="0" y="0"></use>
 <use transform="scale(0.707)" xlink:href="#E1-MJMAIN-2032" x="707" y="555"></use>
</g>
 <use xlink:href="#E1-MJMAIN-29" x="15863" y="0"></use>
</g>
<g transform="translate(257,-1)">
 <use xlink:href="#E1-MJMATHI-56" x="0" y="0"></use>
 <use xlink:href="#E1-MJMATHI-69" x="769" y="0"></use>
 <use xlink:href="#E1-MJMATHI-64" x="1115" y="0"></use>
 <use xlink:href="#E1-MJMATHI-65" x="1638" y="0"></use>
 <use xlink:href="#E1-MJMATHI-6F" x="2105" y="0"></use>
 <use xlink:href="#E1-MJMATHI-57" x="2590" y="0"></use>
 <use xlink:href="#E1-MJMATHI-72" x="3639" y="0"></use>
 <use xlink:href="#E1-MJMATHI-69" x="4090" y="0"></use>
 <use xlink:href="#E1-MJMATHI-74" x="4436" y="0"></use>
 <use xlink:href="#E1-MJMATHI-65" x="4797" y="0"></use>
 <use xlink:href="#E1-MJMATHI-72" x="5264" y="0"></use>
<g transform="translate(5993,0)">
 <use xlink:href="#E1-MJMAIN-3A"></use>
 <use xlink:href="#E1-MJMAIN-3A" x="278" y="0"></use>
</g>
 <use xlink:href="#E1-MJMATHI-66" x="6828" y="0"></use>
 <use xlink:href="#E1-MJMATHI-6F" x="7378" y="0"></use>
 <use xlink:href="#E1-MJMATHI-75" x="7864" y="0"></use>
 <use xlink:href="#E1-MJMATHI-72" x="8436" y="0"></use>
 <use xlink:href="#E1-MJMATHI-63" x="8888" y="0"></use>
 <use xlink:href="#E1-MJMATHI-63" x="9321" y="0"></use>
<g transform="translate(9755,0)">
 <use xlink:href="#E1-MJMAIN-28" x="0" y="0"></use>
 <use transform="scale(0.707)" xlink:href="#E1-MJMAIN-2032" x="550" y="513"></use>
</g>
<g transform="translate(10439,0)">
 <use xlink:href="#E1-MJMATHI-46" x="0" y="0"></use>
 <use transform="scale(0.707)" xlink:href="#E1-MJMAIN-2032" x="1104" y="513"></use>
</g>
<g transform="translate(11515,0)">
 <use xlink:href="#E1-MJMAIN-2C" x="0" y="0"></use>
 <use transform="scale(0.707)" xlink:href="#E1-MJMAIN-2032" x="393" y="513"></use>
</g>
<g transform="translate(12255,0)">
 <use xlink:href="#E1-MJMATHI-4C" x="0" y="0"></use>
 <use transform="scale(0.707)" xlink:href="#E1-MJMAIN-2032" x="963" y="513"></use>
</g>
<g transform="translate(13231,0)">
 <use xlink:href="#E1-MJMAIN-2C" x="0" y="0"></use>
 <use transform="scale(0.707)" xlink:href="#E1-MJMAIN-2032" x="393" y="513"></use>
</g>
<g transform="translate(13971,0)">
 <use xlink:href="#E1-MJMATHI-56" x="0" y="0"></use>
 <use transform="scale(0.707)" xlink:href="#E1-MJMAIN-2032" x="1167" y="513"></use>
</g>
<g transform="translate(15091,0)">
 <use xlink:href="#E1-MJMAIN-2C" x="0" y="0"></use>
 <use transform="scale(0.707)" xlink:href="#E1-MJMAIN-2032" x="393" y="513"></use>
</g>
<g transform="translate(15831,0)">
 <use xlink:href="#E1-MJMAIN-31" x="0" y="0"></use>
 <use transform="scale(0.707)" xlink:href="#E1-MJMAIN-2032" x="707" y="557"></use>
</g>
 <use xlink:href="#E1-MJMAIN-29" x="16627" y="0"></use>
</g>
</g>
<line stroke-linecap="square" stroke-width="20.9" y1="10" x2="10" x1="10" y2="16967" transform="translate(18421,-646)"></line>
<g transform="translate(18921,0)">
<g transform="translate(2315,15255)">
 <use xlink:href="#E1-MJMATHI-4F" x="0" y="0"></use>
 <use xlink:href="#E1-MJMATHI-70" x="763" y="0"></use>
 <use xlink:href="#E1-MJMATHI-65" x="1267" y="0"></use>
 <use xlink:href="#E1-MJMATHI-6E" x="1733" y="0"></use>
 <use xlink:href="#E1-MJMATHI-43" x="2334" y="0"></use>
 <use xlink:href="#E1-MJMATHI-56" x="3094" y="0"></use>
<g transform="translate(3864,0)">
 <use xlink:href="#E1-MJMAIN-34"></use>
 <use xlink:href="#E1-MJMAIN-2E" x="500" y="0"></use>
 <use xlink:href="#E1-MJMAIN-30" x="779" y="0"></use>
</g>
<g transform="translate(5143,0)">
<text font-family="monospace" stroke="none" transform="scale(71.759) matrix(1 0 0 -1 0 0)">版</text>
</g>
<g transform="translate(6291,0)">
<text font-family="monospace" stroke="none" transform="scale(71.759) matrix(1 0 0 -1 0 0)">本</text>
</g>
<g transform="translate(7439,0)">
<text font-family="monospace" stroke="none" transform="scale(71.759) matrix(1 0 0 -1 0 0)">标</text>
</g>
<g transform="translate(8587,0)">
<text font-family="monospace" stroke="none" transform="scale(71.759) matrix(1 0 0 -1 0 0)">志</text>
</g>
</g>
<g transform="translate(133,13563)">
 <use xlink:href="#E1-MJMATHI-43" x="0" y="0"></use>
 <use xlink:href="#E1-MJMATHI-56" x="760" y="0"></use>
 <use xlink:href="#E1-MJMAIN-5F" x="1530" y="0"></use>
 <use xlink:href="#E1-MJMATHI-46" x="2030" y="0"></use>
 <use xlink:href="#E1-MJMATHI-4F" x="2780" y="0"></use>
 <use xlink:href="#E1-MJMATHI-55" x="3543" y="0"></use>
 <use xlink:href="#E1-MJMATHI-52" x="4311" y="0"></use>
 <use xlink:href="#E1-MJMATHI-43" x="5070" y="0"></use>
 <use xlink:href="#E1-MJMATHI-43" x="5831" y="0"></use>
<g transform="translate(6591,0)">
 <use xlink:href="#E1-MJMAIN-28" x="0" y="0"></use>
 <use transform="scale(0.707)" xlink:href="#E1-MJMAIN-2032" x="550" y="513"></use>
</g>
<g transform="translate(7275,0)">
 <use xlink:href="#E1-MJMATHI-44" x="0" y="0"></use>
 <use transform="scale(0.707)" xlink:href="#E1-MJMAIN-2032" x="1171" y="513"></use>
</g>
<g transform="translate(8399,0)">
 <use xlink:href="#E1-MJMAIN-2C" x="0" y="0"></use>
 <use transform="scale(0.707)" xlink:href="#E1-MJMAIN-2032" x="393" y="513"></use>
</g>
<g transform="translate(9139,0)">
 <use xlink:href="#E1-MJMATHI-49" x="0" y="0"></use>
 <use transform="scale(0.707)" xlink:href="#E1-MJMAIN-2032" x="740" y="513"></use>
</g>
<g transform="translate(9957,0)">
 <use xlink:href="#E1-MJMAIN-2C" x="0" y="0"></use>
 <use transform="scale(0.707)" xlink:href="#E1-MJMAIN-2032" x="393" y="513"></use>
</g>
<g transform="translate(10697,0)">
 <use xlink:href="#E1-MJMATHI-56" x="0" y="0"></use>
 <use transform="scale(0.707)" xlink:href="#E1-MJMAIN-2032" x="1167" y="513"></use>
</g>
<g transform="translate(11817,0)">
 <use xlink:href="#E1-MJMAIN-2C" x="0" y="0"></use>
 <use transform="scale(0.707)" xlink:href="#E1-MJMAIN-2032" x="393" y="513"></use>
</g>
<g transform="translate(12557,0)">
 <use xlink:href="#E1-MJMATHI-58" x="0" y="0"></use>
 <use transform="scale(0.707)" xlink:href="#E1-MJMAIN-2032" x="1215" y="513"></use>
</g>
 <use xlink:href="#E1-MJMAIN-29" x="13712" y="0"></use>
</g>
<g transform="translate(209,11872)">
 <use xlink:href="#E1-MJMATHI-43" x="0" y="0"></use>
 <use xlink:href="#E1-MJMATHI-56" x="760" y="0"></use>
 <use xlink:href="#E1-MJMAIN-5F" x="1530" y="0"></use>
 <use xlink:href="#E1-MJMATHI-46" x="2030" y="0"></use>
 <use xlink:href="#E1-MJMATHI-4F" x="2780" y="0"></use>
 <use xlink:href="#E1-MJMATHI-55" x="3543" y="0"></use>
 <use xlink:href="#E1-MJMATHI-52" x="4311" y="0"></use>
 <use xlink:href="#E1-MJMATHI-43" x="5070" y="0"></use>
 <use xlink:href="#E1-MJMATHI-43" x="5831" y="0"></use>
<g transform="translate(6591,0)">
 <use xlink:href="#E1-MJMAIN-28" x="0" y="0"></use>
 <use transform="scale(0.707)" xlink:href="#E1-MJMAIN-2032" x="550" y="513"></use>
</g>
<g transform="translate(7275,0)">
 <use xlink:href="#E1-MJMATHI-50" x="0" y="0"></use>
 <use transform="scale(0.707)" xlink:href="#E1-MJMAIN-2032" x="1109" y="513"></use>
</g>
<g transform="translate(8354,0)">
 <use xlink:href="#E1-MJMAIN-2C" x="0" y="0"></use>
 <use transform="scale(0.707)" xlink:href="#E1-MJMAIN-2032" x="393" y="513"></use>
</g>
<g transform="translate(9094,0)">
 <use xlink:href="#E1-MJMATHI-49" x="0" y="0"></use>
 <use transform="scale(0.707)" xlink:href="#E1-MJMAIN-2032" x="740" y="513"></use>
</g>
<g transform="translate(9913,0)">
 <use xlink:href="#E1-MJMAIN-2C" x="0" y="0"></use>
 <use transform="scale(0.707)" xlink:href="#E1-MJMAIN-2032" x="393" y="513"></use>
</g>
<g transform="translate(10653,0)">
 <use xlink:href="#E1-MJMATHI-4D" x="0" y="0"></use>
 <use transform="scale(0.707)" xlink:href="#E1-MJMAIN-2032" x="1521" y="513"></use>
</g>
<g transform="translate(12024,0)">
 <use xlink:href="#E1-MJMAIN-2C" x="0" y="0"></use>
 <use transform="scale(0.707)" xlink:href="#E1-MJMAIN-2032" x="393" y="513"></use>
</g>
<g transform="translate(12764,0)">
 <use xlink:href="#E1-MJMAIN-31" x="0" y="0"></use>
 <use transform="scale(0.707)" xlink:href="#E1-MJMAIN-2032" x="707" y="557"></use>
</g>
 <use xlink:href="#E1-MJMAIN-29" x="13559" y="0"></use>
</g>
<g transform="translate(0,10180)">
 <use xlink:href="#E1-MJMATHI-43" x="0" y="0"></use>
 <use xlink:href="#E1-MJMATHI-56" x="760" y="0"></use>
 <use xlink:href="#E1-MJMAIN-5F" x="1530" y="0"></use>
 <use xlink:href="#E1-MJMATHI-46" x="2030" y="0"></use>
 <use xlink:href="#E1-MJMATHI-4F" x="2780" y="0"></use>
 <use xlink:href="#E1-MJMATHI-55" x="3543" y="0"></use>
 <use xlink:href="#E1-MJMATHI-52" x="4311" y="0"></use>
 <use xlink:href="#E1-MJMATHI-43" x="5070" y="0"></use>
 <use xlink:href="#E1-MJMATHI-43" x="5831" y="0"></use>
<g transform="translate(6591,0)">
 <use xlink:href="#E1-MJMAIN-28" x="0" y="0"></use>
 <use transform="scale(0.707)" xlink:href="#E1-MJMAIN-2032" x="550" y="513"></use>
</g>
<g transform="translate(7275,0)">
 <use xlink:href="#E1-MJMATHI-4D" x="0" y="0"></use>
 <use transform="scale(0.707)" xlink:href="#E1-MJMAIN-2032" x="1521" y="513"></use>
</g>
<g transform="translate(8646,0)">
 <use xlink:href="#E1-MJMAIN-2C" x="0" y="0"></use>
 <use transform="scale(0.707)" xlink:href="#E1-MJMAIN-2032" x="393" y="513"></use>
</g>
<g transform="translate(9386,0)">
 <use xlink:href="#E1-MJMATHI-4A" x="0" y="0"></use>
 <use transform="scale(0.707)" xlink:href="#E1-MJMAIN-2032" x="929" y="513"></use>
</g>
<g transform="translate(10338,0)">
 <use xlink:href="#E1-MJMAIN-2C" x="0" y="0"></use>
 <use transform="scale(0.707)" xlink:href="#E1-MJMAIN-2032" x="393" y="513"></use>
</g>
<g transform="translate(11078,0)">
 <use xlink:href="#E1-MJMATHI-50" x="0" y="0"></use>
 <use transform="scale(0.707)" xlink:href="#E1-MJMAIN-2032" x="1109" y="513"></use>
</g>
<g transform="translate(12157,0)">
 <use xlink:href="#E1-MJMAIN-2C" x="0" y="0"></use>
 <use transform="scale(0.707)" xlink:href="#E1-MJMAIN-2032" x="393" y="513"></use>
</g>
<g transform="translate(12897,0)">
 <use xlink:href="#E1-MJMATHI-47" x="0" y="0"></use>
 <use transform="scale(0.707)" xlink:href="#E1-MJMAIN-2032" x="1112" y="513"></use>
</g>
 <use xlink:href="#E1-MJMAIN-29" x="13978" y="0"></use>
</g>
<g transform="translate(221,6766)">
 <use xlink:href="#E1-MJMATHI-43" x="0" y="0"></use>
 <use xlink:href="#E1-MJMATHI-56" x="760" y="0"></use>
 <use xlink:href="#E1-MJMAIN-5F" x="1530" y="0"></use>
 <use xlink:href="#E1-MJMATHI-46" x="2030" y="0"></use>
 <use xlink:href="#E1-MJMATHI-4F" x="2780" y="0"></use>
 <use xlink:href="#E1-MJMATHI-55" x="3543" y="0"></use>
 <use xlink:href="#E1-MJMATHI-52" x="4311" y="0"></use>
 <use xlink:href="#E1-MJMATHI-43" x="5070" y="0"></use>
 <use xlink:href="#E1-MJMATHI-43" x="5831" y="0"></use>
<g transform="translate(6591,0)">
 <use xlink:href="#E1-MJMAIN-28" x="0" y="0"></use>
 <use transform="scale(0.707)" xlink:href="#E1-MJMAIN-2032" x="550" y="513"></use>
</g>
<g transform="translate(7275,0)">
 <use xlink:href="#E1-MJMATHI-4D" x="0" y="0"></use>
 <use transform="scale(0.707)" xlink:href="#E1-MJMAIN-2032" x="1521" y="513"></use>
</g>
<g transform="translate(8646,0)">
 <use xlink:href="#E1-MJMAIN-2C" x="0" y="0"></use>
 <use transform="scale(0.707)" xlink:href="#E1-MJMAIN-2032" x="393" y="513"></use>
</g>
<g transform="translate(9386,0)">
 <use xlink:href="#E1-MJMATHI-50" x="0" y="0"></use>
 <use transform="scale(0.707)" xlink:href="#E1-MJMAIN-2032" x="1109" y="513"></use>
</g>
<g transform="translate(10465,0)">
 <use xlink:href="#E1-MJMAIN-2C" x="0" y="0"></use>
 <use transform="scale(0.707)" xlink:href="#E1-MJMAIN-2032" x="393" y="513"></use>
</g>
<g transform="translate(11205,0)">
 <use xlink:href="#E1-MJMAIN-34" x="0" y="0"></use>
 <use transform="scale(0.707)" xlink:href="#E1-MJMAIN-2032" x="707" y="572"></use>
</g>
<g transform="translate(12000,0)">
 <use xlink:href="#E1-MJMAIN-2C" x="0" y="0"></use>
 <use transform="scale(0.707)" xlink:href="#E1-MJMAIN-2032" x="393" y="513"></use>
</g>
<g transform="translate(12740,0)">
 <use xlink:href="#E1-MJMAIN-32" x="0" y="0"></use>
 <use transform="scale(0.707)" xlink:href="#E1-MJMAIN-2032" x="707" y="557"></use>
</g>
 <use xlink:href="#E1-MJMAIN-29" x="13536" y="0"></use>
</g>
<g transform="translate(312,5074)">
 <use xlink:href="#E1-MJMATHI-43" x="0" y="0"></use>
 <use xlink:href="#E1-MJMATHI-56" x="760" y="0"></use>
 <use xlink:href="#E1-MJMAIN-5F" x="1530" y="0"></use>
 <use xlink:href="#E1-MJMATHI-46" x="2030" y="0"></use>
 <use xlink:href="#E1-MJMATHI-4F" x="2780" y="0"></use>
 <use xlink:href="#E1-MJMATHI-55" x="3543" y="0"></use>
 <use xlink:href="#E1-MJMATHI-52" x="4311" y="0"></use>
 <use xlink:href="#E1-MJMATHI-43" x="5070" y="0"></use>
 <use xlink:href="#E1-MJMATHI-43" x="5831" y="0"></use>
<g transform="translate(6591,0)">
 <use xlink:href="#E1-MJMAIN-28" x="0" y="0"></use>
 <use transform="scale(0.707)" xlink:href="#E1-MJMAIN-2032" x="550" y="513"></use>
</g>
<g transform="translate(7275,0)">
 <use xlink:href="#E1-MJMATHI-44" x="0" y="0"></use>
 <use transform="scale(0.707)" xlink:href="#E1-MJMAIN-2032" x="1171" y="513"></use>
</g>
<g transform="translate(8399,0)">
 <use xlink:href="#E1-MJMAIN-2C" x="0" y="0"></use>
 <use transform="scale(0.707)" xlink:href="#E1-MJMAIN-2032" x="393" y="513"></use>
</g>
<g transform="translate(9139,0)">
 <use xlink:href="#E1-MJMATHI-49" x="0" y="0"></use>
 <use transform="scale(0.707)" xlink:href="#E1-MJMAIN-2032" x="740" y="513"></use>
</g>
<g transform="translate(9957,0)">
 <use xlink:href="#E1-MJMAIN-2C" x="0" y="0"></use>
 <use transform="scale(0.707)" xlink:href="#E1-MJMAIN-2032" x="393" y="513"></use>
</g>
<g transform="translate(10697,0)">
 <use xlink:href="#E1-MJMATHI-56" x="0" y="0"></use>
 <use transform="scale(0.707)" xlink:href="#E1-MJMAIN-2032" x="1167" y="513"></use>
</g>
<g transform="translate(11817,0)">
 <use xlink:href="#E1-MJMAIN-2C" x="0" y="0"></use>
 <use transform="scale(0.707)" xlink:href="#E1-MJMAIN-2032" x="393" y="513"></use>
</g>
<g transform="translate(12557,0)">
 <use xlink:href="#E1-MJMAIN-33" x="0" y="0"></use>
 <use transform="scale(0.707)" xlink:href="#E1-MJMAIN-2032" x="707" y="555"></use>
</g>
 <use xlink:href="#E1-MJMAIN-29" x="13353" y="0"></use>
</g>
<g transform="translate(504,3383)">
 <use xlink:href="#E1-MJMATHI-43" x="0" y="0"></use>
 <use xlink:href="#E1-MJMATHI-56" x="760" y="0"></use>
 <use xlink:href="#E1-MJMAIN-5F" x="1530" y="0"></use>
 <use xlink:href="#E1-MJMATHI-46" x="2030" y="0"></use>
 <use xlink:href="#E1-MJMATHI-4F" x="2780" y="0"></use>
 <use xlink:href="#E1-MJMATHI-55" x="3543" y="0"></use>
 <use xlink:href="#E1-MJMATHI-52" x="4311" y="0"></use>
 <use xlink:href="#E1-MJMATHI-43" x="5070" y="0"></use>
 <use xlink:href="#E1-MJMATHI-43" x="5831" y="0"></use>
<g transform="translate(6591,0)">
 <use xlink:href="#E1-MJMAIN-28" x="0" y="0"></use>
 <use transform="scale(0.707)" xlink:href="#E1-MJMAIN-2032" x="550" y="513"></use>
</g>
<g transform="translate(7275,0)">
 <use xlink:href="#E1-MJMATHI-55" x="0" y="0"></use>
 <use transform="scale(0.707)" xlink:href="#E1-MJMAIN-2032" x="1121" y="513"></use>
</g>
<g transform="translate(8363,0)">
 <use xlink:href="#E1-MJMAIN-2C" x="0" y="0"></use>
 <use transform="scale(0.707)" xlink:href="#E1-MJMAIN-2032" x="393" y="513"></use>
</g>
<g transform="translate(9103,0)">
 <use xlink:href="#E1-MJMAIN-32" x="0" y="0"></use>
 <use transform="scale(0.707)" xlink:href="#E1-MJMAIN-2032" x="707" y="557"></use>
</g>
<g transform="translate(9898,0)">
 <use xlink:href="#E1-MJMAIN-2C" x="0" y="0"></use>
 <use transform="scale(0.707)" xlink:href="#E1-MJMAIN-2032" x="393" y="513"></use>
</g>
<g transform="translate(10638,0)">
 <use xlink:href="#E1-MJMAIN-36" x="0" y="0"></use>
 <use transform="scale(0.707)" xlink:href="#E1-MJMAIN-2032" x="707" y="557"></use>
</g>
<g transform="translate(11433,0)">
 <use xlink:href="#E1-MJMAIN-2C" x="0" y="0"></use>
 <use transform="scale(0.707)" xlink:href="#E1-MJMAIN-2032" x="393" y="513"></use>
</g>
<g transform="translate(12173,0)">
 <use xlink:href="#E1-MJMAIN-33" x="0" y="0"></use>
 <use transform="scale(0.707)" xlink:href="#E1-MJMAIN-2032" x="707" y="555"></use>
</g>
 <use xlink:href="#E1-MJMAIN-29" x="12969" y="0"></use>
</g>
<g transform="translate(639,1691)">
 <use xlink:href="#E1-MJMATHI-43" x="0" y="0"></use>
 <use xlink:href="#E1-MJMATHI-56" x="760" y="0"></use>
 <use xlink:href="#E1-MJMAIN-5F" x="1530" y="0"></use>
 <use xlink:href="#E1-MJMATHI-46" x="2030" y="0"></use>
 <use xlink:href="#E1-MJMATHI-4F" x="2780" y="0"></use>
 <use xlink:href="#E1-MJMATHI-55" x="3543" y="0"></use>
 <use xlink:href="#E1-MJMATHI-52" x="4311" y="0"></use>
 <use xlink:href="#E1-MJMATHI-43" x="5070" y="0"></use>
 <use xlink:href="#E1-MJMATHI-43" x="5831" y="0"></use>
<g transform="translate(6591,0)">
 <use xlink:href="#E1-MJMAIN-28" x="0" y="0"></use>
 <use transform="scale(0.707)" xlink:href="#E1-MJMAIN-2032" x="550" y="513"></use>
</g>
<g transform="translate(7275,0)">
 <use xlink:href="#E1-MJMATHI-49" x="0" y="0"></use>
 <use transform="scale(0.707)" xlink:href="#E1-MJMAIN-2032" x="740" y="513"></use>
</g>
<g transform="translate(8094,0)">
 <use xlink:href="#E1-MJMAIN-2C" x="0" y="0"></use>
 <use transform="scale(0.707)" xlink:href="#E1-MJMAIN-2032" x="393" y="513"></use>
</g>
<g transform="translate(8834,0)">
 <use xlink:href="#E1-MJMAIN-32" x="0" y="0"></use>
 <use transform="scale(0.707)" xlink:href="#E1-MJMAIN-2032" x="707" y="557"></use>
</g>
<g transform="translate(9629,0)">
 <use xlink:href="#E1-MJMAIN-2C" x="0" y="0"></use>
 <use transform="scale(0.707)" xlink:href="#E1-MJMAIN-2032" x="393" y="513"></use>
</g>
<g transform="translate(10369,0)">
 <use xlink:href="#E1-MJMAIN-36" x="0" y="0"></use>
 <use transform="scale(0.707)" xlink:href="#E1-MJMAIN-2032" x="707" y="557"></use>
</g>
<g transform="translate(11164,0)">
 <use xlink:href="#E1-MJMAIN-2C" x="0" y="0"></use>
 <use transform="scale(0.707)" xlink:href="#E1-MJMAIN-2032" x="393" y="513"></use>
</g>
<g transform="translate(11904,0)">
 <use xlink:href="#E1-MJMAIN-33" x="0" y="0"></use>
 <use transform="scale(0.707)" xlink:href="#E1-MJMAIN-2032" x="707" y="555"></use>
</g>
 <use xlink:href="#E1-MJMAIN-29" x="12700" y="0"></use>
</g>
<g transform="translate(257,-1)">
 <use xlink:href="#E1-MJMATHI-43" x="0" y="0"></use>
 <use xlink:href="#E1-MJMATHI-56" x="760" y="0"></use>
 <use xlink:href="#E1-MJMAIN-5F" x="1530" y="0"></use>
 <use xlink:href="#E1-MJMATHI-46" x="2030" y="0"></use>
 <use xlink:href="#E1-MJMATHI-4F" x="2780" y="0"></use>
 <use xlink:href="#E1-MJMATHI-55" x="3543" y="0"></use>
 <use xlink:href="#E1-MJMATHI-52" x="4311" y="0"></use>
 <use xlink:href="#E1-MJMATHI-43" x="5070" y="0"></use>
 <use xlink:href="#E1-MJMATHI-43" x="5831" y="0"></use>
<g transform="translate(6591,0)">
 <use xlink:href="#E1-MJMAIN-28" x="0" y="0"></use>
 <use transform="scale(0.707)" xlink:href="#E1-MJMAIN-2032" x="550" y="513"></use>
</g>
<g transform="translate(7275,0)">
 <use xlink:href="#E1-MJMATHI-46" x="0" y="0"></use>
 <use transform="scale(0.707)" xlink:href="#E1-MJMAIN-2032" x="1104" y="513"></use>
</g>
<g transform="translate(8351,0)">
 <use xlink:href="#E1-MJMAIN-2C" x="0" y="0"></use>
 <use transform="scale(0.707)" xlink:href="#E1-MJMAIN-2032" x="393" y="513"></use>
</g>
<g transform="translate(9091,0)">
 <use xlink:href="#E1-MJMATHI-4C" x="0" y="0"></use>
 <use transform="scale(0.707)" xlink:href="#E1-MJMAIN-2032" x="963" y="513"></use>
</g>
<g transform="translate(10068,0)">
 <use xlink:href="#E1-MJMAIN-2C" x="0" y="0"></use>
 <use transform="scale(0.707)" xlink:href="#E1-MJMAIN-2032" x="393" y="513"></use>
</g>
<g transform="translate(10808,0)">
 <use xlink:href="#E1-MJMATHI-56" x="0" y="0"></use>
 <use transform="scale(0.707)" xlink:href="#E1-MJMAIN-2032" x="1167" y="513"></use>
</g>
<g transform="translate(11928,0)">
 <use xlink:href="#E1-MJMAIN-2C" x="0" y="0"></use>
 <use transform="scale(0.707)" xlink:href="#E1-MJMAIN-2032" x="393" y="513"></use>
</g>
<g transform="translate(12668,0)">
 <use xlink:href="#E1-MJMAIN-31" x="0" y="0"></use>
 <use transform="scale(0.707)" xlink:href="#E1-MJMAIN-2032" x="707" y="557"></use>
</g>
 <use xlink:href="#E1-MJMAIN-29" x="13463" y="0"></use>
</g>
</g>
<line stroke-linecap="square" stroke-width="20.9" y1="10" x2="10" x1="10" y2="16967" transform="translate(33789,-646)"></line>
<g transform="translate(34289,0)">
<g transform="translate(3444,15255)">
<text font-family="monospace" stroke="none" transform="scale(71.759) matrix(1 0 0 -1 0 0)">作</text>
<g transform="translate(1148,0)">
<text font-family="monospace" stroke="none" transform="scale(71.759) matrix(1 0 0 -1 0 0)">用</text>
</g>
</g>
<g transform="translate(905,13563)">
 <use xlink:href="#E1-MJMATHI-4D" x="0" y="0"></use>
 <use xlink:href="#E1-MJMATHI-50" x="1051" y="0"></use>
 <use xlink:href="#E1-MJMATHI-45" x="1803" y="0"></use>
 <use xlink:href="#E1-MJMATHI-47" x="2567" y="0"></use>
 <use xlink:href="#E1-MJMAIN-2212" x="3576" y="0"></use>
 <use xlink:href="#E1-MJMAIN-34" x="4576" y="0"></use>
<g transform="translate(5077,0)">
<text font-family="monospace" stroke="none" transform="scale(71.759) matrix(1 0 0 -1 0 0)">编</text>
</g>
<g transform="translate(6225,0)">
<text font-family="monospace" stroke="none" transform="scale(71.759) matrix(1 0 0 -1 0 0)">码</text>
</g>
</g>
<g transform="translate(905,11872)">
 <use xlink:href="#E1-MJMATHI-4D" x="0" y="0"></use>
 <use xlink:href="#E1-MJMATHI-50" x="1051" y="0"></use>
 <use xlink:href="#E1-MJMATHI-45" x="1803" y="0"></use>
 <use xlink:href="#E1-MJMATHI-47" x="2567" y="0"></use>
 <use xlink:href="#E1-MJMAIN-2212" x="3576" y="0"></use>
 <use xlink:href="#E1-MJMAIN-31" x="4576" y="0"></use>
<g transform="translate(5077,0)">
<text font-family="monospace" stroke="none" transform="scale(71.759) matrix(1 0 0 -1 0 0)">编</text>
</g>
<g transform="translate(6225,0)">
<text font-family="monospace" stroke="none" transform="scale(71.759) matrix(1 0 0 -1 0 0)">码</text>
</g>
</g>
<g transform="translate(0,10180)">
 <use xlink:href="#E1-MJMATHI-4A" x="0" y="0"></use>
 <use xlink:href="#E1-MJMATHI-50" x="633" y="0"></use>
 <use xlink:href="#E1-MJMATHI-45" x="1385" y="0"></use>
 <use xlink:href="#E1-MJMATHI-47" x="2149" y="0"></use>
<g transform="translate(2936,0)">
<text font-family="monospace" stroke="none" transform="scale(71.759) matrix(1 0 0 -1 0 0)">编</text>
</g>
<g transform="translate(4084,0)">
<text font-family="monospace" stroke="none" transform="scale(71.759) matrix(1 0 0 -1 0 0)">码</text>
</g>
<g transform="translate(0,-1723)">
<text font-family="monospace" stroke="none" transform="scale(71.759) matrix(1 0 0 -1 0 0)">（</text>
<g transform="translate(1148,0)">
<text font-family="monospace" stroke="none" transform="scale(71.759) matrix(1 0 0 -1 0 0)">运</text>
</g>
<g transform="translate(2296,0)">
<text font-family="monospace" stroke="none" transform="scale(71.759) matrix(1 0 0 -1 0 0)">行</text>
</g>
<g transform="translate(3444,0)">
<text font-family="monospace" stroke="none" transform="scale(71.759) matrix(1 0 0 -1 0 0)">效</text>
</g>
<g transform="translate(4592,0)">
<text font-family="monospace" stroke="none" transform="scale(71.759) matrix(1 0 0 -1 0 0)">果</text>
</g>
<g transform="translate(5740,0)">
<text font-family="monospace" stroke="none" transform="scale(71.759) matrix(1 0 0 -1 0 0)">一</text>
</g>
<g transform="translate(6888,0)">
<text font-family="monospace" stroke="none" transform="scale(71.759) matrix(1 0 0 -1 0 0)">般</text>
</g>
<g transform="translate(8037,0)">
<text font-family="monospace" stroke="none" transform="scale(71.759) matrix(1 0 0 -1 0 0)">）</text>
</g>
</g>
</g>
<g transform="translate(516,6766)">
 <use xlink:href="#E1-MJMATHI-4D" x="0" y="0"></use>
 <use xlink:href="#E1-MJMATHI-50" x="1051" y="0"></use>
 <use xlink:href="#E1-MJMATHI-45" x="1803" y="0"></use>
 <use xlink:href="#E1-MJMATHI-47" x="2567" y="0"></use>
 <use xlink:href="#E1-MJMAIN-2212" x="3576" y="0"></use>
<g transform="translate(4576,0)">
 <use xlink:href="#E1-MJMAIN-34"></use>
 <use xlink:href="#E1-MJMAIN-2E" x="500" y="0"></use>
 <use xlink:href="#E1-MJMAIN-32" x="779" y="0"></use>
</g>
<g transform="translate(5856,0)">
<text font-family="monospace" stroke="none" transform="scale(71.759) matrix(1 0 0 -1 0 0)">编</text>
</g>
<g transform="translate(7004,0)">
<text font-family="monospace" stroke="none" transform="scale(71.759) matrix(1 0 0 -1 0 0)">码</text>
</g>
</g>
<g transform="translate(516,5074)">
 <use xlink:href="#E1-MJMATHI-4D" x="0" y="0"></use>
 <use xlink:href="#E1-MJMATHI-50" x="1051" y="0"></use>
 <use xlink:href="#E1-MJMATHI-45" x="1803" y="0"></use>
 <use xlink:href="#E1-MJMATHI-47" x="2567" y="0"></use>
 <use xlink:href="#E1-MJMAIN-2212" x="3576" y="0"></use>
<g transform="translate(4576,0)">
 <use xlink:href="#E1-MJMAIN-34"></use>
 <use xlink:href="#E1-MJMAIN-2E" x="500" y="0"></use>
 <use xlink:href="#E1-MJMAIN-33" x="779" y="0"></use>
</g>
<g transform="translate(5856,0)">
<text font-family="monospace" stroke="none" transform="scale(71.759) matrix(1 0 0 -1 0 0)">编</text>
</g>
<g transform="translate(7004,0)">
<text font-family="monospace" stroke="none" transform="scale(71.759) matrix(1 0 0 -1 0 0)">码</text>
</g>
</g>
<g transform="translate(2249,3383)">
 <use xlink:href="#E1-MJMATHI-48" x="0" y="0"></use>
<g transform="translate(888,0)">
 <use xlink:href="#E1-MJMAIN-32"></use>
 <use xlink:href="#E1-MJMAIN-36" x="500" y="0"></use>
 <use xlink:href="#E1-MJMAIN-33" x="1001" y="0"></use>
</g>
<g transform="translate(2390,0)">
<text font-family="monospace" stroke="none" transform="scale(71.759) matrix(1 0 0 -1 0 0)">编</text>
</g>
<g transform="translate(3538,0)">
<text font-family="monospace" stroke="none" transform="scale(71.759) matrix(1 0 0 -1 0 0)">码</text>
</g>
</g>
<g transform="translate(1997,1691)">
 <use xlink:href="#E1-MJMATHI-48" x="0" y="0"></use>
<g transform="translate(888,0)">
 <use xlink:href="#E1-MJMAIN-32"></use>
 <use xlink:href="#E1-MJMAIN-36" x="500" y="0"></use>
 <use xlink:href="#E1-MJMAIN-33" x="1001" y="0"></use>
</g>
 <use xlink:href="#E1-MJMATHI-49" x="2390" y="0"></use>
<g transform="translate(2894,0)">
<text font-family="monospace" stroke="none" transform="scale(71.759) matrix(1 0 0 -1 0 0)">编</text>
</g>
<g transform="translate(4042,0)">
<text font-family="monospace" stroke="none" transform="scale(71.759) matrix(1 0 0 -1 0 0)">码</text>
</g>
</g>
<g transform="translate(2093,-1)">
 <use xlink:href="#E1-MJMATHI-46" x="0" y="0"></use>
 <use xlink:href="#E1-MJMATHI-4C" x="749" y="0"></use>
 <use xlink:href="#E1-MJMATHI-56" x="1431" y="0"></use>
 <use xlink:href="#E1-MJMAIN-31" x="2200" y="0"></use>
<g transform="translate(2701,0)">
<text font-family="monospace" stroke="none" transform="scale(71.759) matrix(1 0 0 -1 0 0)">编</text>
</g>
<g transform="translate(3849,0)">
<text font-family="monospace" stroke="none" transform="scale(71.759) matrix(1 0 0 -1 0 0)">码</text>
</g>
</g>
</g>
<line stroke-linecap="square" stroke-width="20.9" y2="10" y1="10" x1="10" x2="43863" transform="translate(0,16310)"></line>
<line stroke-linecap="square" stroke-width="20.9" y2="10" y1="10" x1="10" x2="43863" transform="translate(0,-646)"></line>
<line stroke-linecap="square" stroke-width="20.9" y1="10" x2="10" x1="10" y2="16967" transform="translate(0,-646)"></line>
<line stroke-linecap="square" stroke-width="20.9" y1="10" x2="10" x1="10" y2="16967" transform="translate(43853,-646)"></line>
<line stroke-linecap="square" stroke-width="20.9" y2="10" y1="10" x1="10" x2="43863" transform="translate(0,14614)"></line>
<line stroke-linecap="square" stroke-width="20.9" y2="10" y1="10" x1="10" x2="43863" transform="translate(0,12922)"></line>
<line stroke-linecap="square" stroke-width="20.9" y2="10" y1="10" x1="10" x2="43863" transform="translate(0,11231)"></line>
<line stroke-linecap="square" stroke-width="20.9" y2="10" y1="10" x1="10" x2="43863" transform="translate(0,7817)"></line>
<line stroke-linecap="square" stroke-width="20.9" y2="10" y1="10" x1="10" x2="43863" transform="translate(0,6125)"></line>
<line stroke-linecap="square" stroke-width="20.9" y2="10" y1="10" x1="10" x2="43863" transform="translate(0,4433)"></line>
<line stroke-linecap="square" stroke-width="20.9" y2="10" y1="10" x1="10" x2="43863" transform="translate(0,2742)"></line>
<line stroke-linecap="square" stroke-width="20.9" y2="10" y1="10" x1="10" x2="43863" transform="translate(0,1050)"></line>
</g>
</g>
</svg>